<mxfile host="app.diagrams.net" agent="Mozilla/5.0 (X11; Ubuntu; Linux x86_64; rv:136.0) Gecko/20100101 Firefox/136.0" version="26.1.2">
  <diagram name="Page-1" id="9f46799a-70d6-7492-0946-bef42562c5a5">
    <mxGraphModel dx="8296" dy="6300" grid="1" gridSize="10" guides="1" tooltips="1" connect="1" arrows="1" fold="1" page="1" pageScale="1" pageWidth="1100" pageHeight="850" background="none" math="0" shadow="0">
      <root>
        <mxCell id="0" />
        <mxCell id="1" parent="0" />
        <mxCell id="qxyERZ4D7mE2W_aF4MiE-60" value="users" style="swimlane;whiteSpace=wrap;html=1;startSize=40;fontStyle=1;fontSize=20;fillColor=light-dark(#FCFCFC,#000000);gradientColor=light-dark(#000000,#999900);strokeColor=light-dark(#82B366,#FFFFFF);gradientDirection=north;strokeWidth=2;rounded=1;" parent="1" vertex="1">
          <mxGeometry x="680" y="-1080" width="480" height="120" as="geometry" />
        </mxCell>
        <mxCell id="qxyERZ4D7mE2W_aF4MiE-61" value="SERIAL" style="shape=partialRectangle;connectable=0;fillColor=none;top=1;left=1;bottom=1;right=1;align=right;spacingLeft=5;fontStyle=0;overflow=hidden;html=1;whiteSpace=wrap;spacingRight=5;fontSize=14;strokeColor=default;verticalAlign=middle;fontFamily=Helvetica;fontColor=default;" parent="qxyERZ4D7mE2W_aF4MiE-60" vertex="1">
          <mxGeometry x="160" y="40" width="160" height="40" as="geometry">
            <mxRectangle width="180" height="30" as="alternateBounds" />
          </mxGeometry>
        </mxCell>
        <mxCell id="qxyERZ4D7mE2W_aF4MiE-62" value="&lt;div align=&quot;left&quot;&gt;id&lt;/div&gt;" style="shape=partialRectangle;connectable=0;fillColor=none;top=1;left=1;bottom=1;right=1;align=left;spacingLeft=5;fontStyle=0;overflow=hidden;html=1;whiteSpace=wrap;spacingRight=5;fontSize=16;strokeColor=default;verticalAlign=middle;fontFamily=Helvetica;fontColor=default;" parent="qxyERZ4D7mE2W_aF4MiE-60" vertex="1">
          <mxGeometry y="40" width="160" height="40" as="geometry">
            <mxRectangle width="180" height="30" as="alternateBounds" />
          </mxGeometry>
        </mxCell>
        <mxCell id="qxyERZ4D7mE2W_aF4MiE-63" value="PK" style="shape=partialRectangle;connectable=0;fillColor=none;top=1;left=1;bottom=1;right=1;align=left;spacingLeft=5;fontStyle=0;overflow=hidden;html=1;whiteSpace=wrap;spacingRight=5;fontSize=12;strokeColor=default;verticalAlign=middle;fontFamily=Helvetica;fontColor=default;" parent="qxyERZ4D7mE2W_aF4MiE-60" vertex="1">
          <mxGeometry x="320" y="40" width="160" height="40" as="geometry">
            <mxRectangle width="180" height="30" as="alternateBounds" />
          </mxGeometry>
        </mxCell>
        <mxCell id="qxyERZ4D7mE2W_aF4MiE-64" value="VARCHAR(32)" style="shape=partialRectangle;connectable=0;fillColor=none;top=1;left=1;bottom=1;right=1;align=right;spacingLeft=5;fontStyle=0;overflow=hidden;html=1;whiteSpace=wrap;spacingRight=5;fontSize=14;strokeColor=default;verticalAlign=middle;fontFamily=Helvetica;fontColor=default;" parent="qxyERZ4D7mE2W_aF4MiE-60" vertex="1">
          <mxGeometry x="160" y="80" width="160" height="40" as="geometry">
            <mxRectangle width="180" height="30" as="alternateBounds" />
          </mxGeometry>
        </mxCell>
        <mxCell id="qxyERZ4D7mE2W_aF4MiE-65" value="login" style="shape=partialRectangle;connectable=0;fillColor=none;top=1;left=0;bottom=0;right=1;align=left;spacingLeft=5;fontStyle=0;overflow=hidden;html=1;whiteSpace=wrap;spacingRight=5;fontSize=16;strokeColor=default;verticalAlign=middle;fontFamily=Helvetica;fontColor=default;" parent="qxyERZ4D7mE2W_aF4MiE-60" vertex="1">
          <mxGeometry y="80" width="160" height="40" as="geometry">
            <mxRectangle width="180" height="30" as="alternateBounds" />
          </mxGeometry>
        </mxCell>
        <mxCell id="qxyERZ4D7mE2W_aF4MiE-66" value="UNIQUE, NOT NULL" style="shape=partialRectangle;connectable=0;fillColor=none;top=1;left=1;bottom=0;right=0;align=left;spacingLeft=5;fontStyle=0;overflow=hidden;html=1;whiteSpace=wrap;spacingRight=5;fontSize=12;strokeColor=default;verticalAlign=middle;fontFamily=Helvetica;fontColor=default;" parent="qxyERZ4D7mE2W_aF4MiE-60" vertex="1">
          <mxGeometry x="320" y="80" width="160" height="40" as="geometry">
            <mxRectangle width="180" height="30" as="alternateBounds" />
          </mxGeometry>
        </mxCell>
        <mxCell id="qxyERZ4D7mE2W_aF4MiE-82" value="events" style="swimlane;whiteSpace=wrap;html=1;startSize=40;fontStyle=1;fontSize=20;fillColor=light-dark(#DAE8FC,#000000);gradientColor=light-dark(#000000,#008C13);strokeColor=default;strokeWidth=2;rounded=1;" parent="1" vertex="1">
          <mxGeometry x="680" y="-800" width="480" height="240" as="geometry" />
        </mxCell>
        <mxCell id="qxyERZ4D7mE2W_aF4MiE-83" value="BIGSERIAL" style="shape=partialRectangle;connectable=0;fillColor=none;top=1;left=1;bottom=1;right=1;align=right;spacingLeft=5;fontStyle=0;overflow=hidden;html=1;whiteSpace=wrap;spacingRight=5;fontSize=14;strokeColor=default;verticalAlign=middle;fontFamily=Helvetica;fontColor=default;" parent="qxyERZ4D7mE2W_aF4MiE-82" vertex="1">
          <mxGeometry x="160" y="40" width="160" height="40" as="geometry">
            <mxRectangle width="180" height="30" as="alternateBounds" />
          </mxGeometry>
        </mxCell>
        <mxCell id="qxyERZ4D7mE2W_aF4MiE-84" value="&lt;div align=&quot;left&quot;&gt;id&lt;/div&gt;" style="shape=partialRectangle;connectable=0;fillColor=none;top=1;left=1;bottom=1;right=1;align=left;spacingLeft=5;fontStyle=0;overflow=hidden;html=1;whiteSpace=wrap;spacingRight=5;fontSize=16;strokeColor=default;verticalAlign=middle;fontFamily=Helvetica;fontColor=default;" parent="qxyERZ4D7mE2W_aF4MiE-82" vertex="1">
          <mxGeometry y="40" width="160" height="40" as="geometry">
            <mxRectangle width="180" height="30" as="alternateBounds" />
          </mxGeometry>
        </mxCell>
        <mxCell id="qxyERZ4D7mE2W_aF4MiE-85" value="PK" style="shape=partialRectangle;connectable=0;fillColor=none;top=1;left=1;bottom=1;right=1;align=left;spacingLeft=5;fontStyle=0;overflow=hidden;html=1;whiteSpace=wrap;spacingRight=5;fontSize=12;strokeColor=default;verticalAlign=middle;fontFamily=Helvetica;fontColor=default;" parent="qxyERZ4D7mE2W_aF4MiE-82" vertex="1">
          <mxGeometry x="320" y="40" width="160" height="40" as="geometry">
            <mxRectangle width="180" height="30" as="alternateBounds" />
          </mxGeometry>
        </mxCell>
        <mxCell id="qxyERZ4D7mE2W_aF4MiE-86" value="VARCHAR(64)" style="shape=partialRectangle;connectable=0;fillColor=none;top=1;left=1;bottom=1;right=1;align=right;spacingLeft=5;fontStyle=0;overflow=hidden;html=1;whiteSpace=wrap;spacingRight=5;fontSize=14;strokeColor=default;verticalAlign=middle;fontFamily=Helvetica;fontColor=default;" parent="qxyERZ4D7mE2W_aF4MiE-82" vertex="1">
          <mxGeometry x="160" y="80" width="160" height="40" as="geometry">
            <mxRectangle width="180" height="30" as="alternateBounds" />
          </mxGeometry>
        </mxCell>
        <mxCell id="qxyERZ4D7mE2W_aF4MiE-87" value="title" style="shape=partialRectangle;connectable=0;fillColor=none;top=1;left=1;bottom=1;right=1;align=left;spacingLeft=5;fontStyle=0;overflow=hidden;html=1;whiteSpace=wrap;spacingRight=5;fontSize=16;strokeColor=default;verticalAlign=middle;fontFamily=Helvetica;fontColor=default;" parent="qxyERZ4D7mE2W_aF4MiE-82" vertex="1">
          <mxGeometry y="80" width="160" height="40" as="geometry">
            <mxRectangle width="180" height="30" as="alternateBounds" />
          </mxGeometry>
        </mxCell>
        <mxCell id="qxyERZ4D7mE2W_aF4MiE-88" value="NOT NULL" style="shape=partialRectangle;connectable=0;fillColor=none;top=1;left=1;bottom=1;right=1;align=left;spacingLeft=5;fontStyle=0;overflow=hidden;html=1;whiteSpace=wrap;spacingRight=5;fontSize=12;strokeColor=default;verticalAlign=middle;fontFamily=Helvetica;fontColor=default;" parent="qxyERZ4D7mE2W_aF4MiE-82" vertex="1">
          <mxGeometry x="320" y="80" width="160" height="40" as="geometry">
            <mxRectangle width="180" height="30" as="alternateBounds" />
          </mxGeometry>
        </mxCell>
        <mxCell id="qxyERZ4D7mE2W_aF4MiE-89" value="DATE" style="shape=partialRectangle;connectable=0;fillColor=none;top=1;left=1;bottom=1;right=1;align=right;spacingLeft=5;fontStyle=0;overflow=hidden;html=1;whiteSpace=wrap;spacingRight=5;fontSize=14;strokeColor=default;verticalAlign=middle;fontFamily=Helvetica;fontColor=default;" parent="qxyERZ4D7mE2W_aF4MiE-82" vertex="1">
          <mxGeometry x="160" y="120" width="160" height="40" as="geometry">
            <mxRectangle width="180" height="30" as="alternateBounds" />
          </mxGeometry>
        </mxCell>
        <mxCell id="qxyERZ4D7mE2W_aF4MiE-90" value="date" style="shape=partialRectangle;connectable=0;fillColor=none;top=1;left=1;bottom=1;right=1;align=left;spacingLeft=5;fontStyle=0;overflow=hidden;html=1;whiteSpace=wrap;spacingRight=5;fontSize=16;strokeColor=default;verticalAlign=middle;fontFamily=Helvetica;fontColor=default;" parent="qxyERZ4D7mE2W_aF4MiE-82" vertex="1">
          <mxGeometry y="120" width="160" height="40" as="geometry">
            <mxRectangle width="180" height="30" as="alternateBounds" />
          </mxGeometry>
        </mxCell>
        <mxCell id="qxyERZ4D7mE2W_aF4MiE-91" value="NOT NULL" style="shape=partialRectangle;connectable=0;fillColor=none;top=1;left=1;bottom=1;right=1;align=left;spacingLeft=5;fontStyle=0;overflow=hidden;html=1;whiteSpace=wrap;spacingRight=5;fontSize=12;strokeColor=default;verticalAlign=middle;fontFamily=Helvetica;fontColor=default;" parent="qxyERZ4D7mE2W_aF4MiE-82" vertex="1">
          <mxGeometry x="320" y="120" width="160" height="40" as="geometry">
            <mxRectangle width="180" height="30" as="alternateBounds" />
          </mxGeometry>
        </mxCell>
        <mxCell id="qxyERZ4D7mE2W_aF4MiE-116" value="TEXT" style="shape=partialRectangle;connectable=0;fillColor=none;top=1;left=1;bottom=1;right=1;align=right;spacingLeft=5;fontStyle=0;overflow=hidden;html=1;whiteSpace=wrap;spacingRight=5;fontSize=14;strokeColor=default;verticalAlign=middle;fontFamily=Helvetica;fontColor=default;" parent="qxyERZ4D7mE2W_aF4MiE-82" vertex="1">
          <mxGeometry x="160" y="160" width="160" height="40" as="geometry">
            <mxRectangle width="180" height="30" as="alternateBounds" />
          </mxGeometry>
        </mxCell>
        <mxCell id="qxyERZ4D7mE2W_aF4MiE-117" value="description" style="shape=partialRectangle;connectable=0;fillColor=none;top=1;left=1;bottom=1;right=1;align=left;spacingLeft=5;fontStyle=0;overflow=hidden;html=1;whiteSpace=wrap;spacingRight=5;fontSize=16;strokeColor=default;verticalAlign=middle;fontFamily=Helvetica;fontColor=default;" parent="qxyERZ4D7mE2W_aF4MiE-82" vertex="1">
          <mxGeometry y="160" width="160" height="40" as="geometry">
            <mxRectangle width="180" height="30" as="alternateBounds" />
          </mxGeometry>
        </mxCell>
        <mxCell id="qxyERZ4D7mE2W_aF4MiE-118" value="" style="shape=partialRectangle;connectable=0;fillColor=none;top=1;left=1;bottom=1;right=1;align=left;spacingLeft=5;fontStyle=0;overflow=hidden;html=1;whiteSpace=wrap;spacingRight=5;fontSize=12;strokeColor=default;verticalAlign=middle;fontFamily=Helvetica;fontColor=default;" parent="qxyERZ4D7mE2W_aF4MiE-82" vertex="1">
          <mxGeometry x="320" y="160" width="160" height="40" as="geometry">
            <mxRectangle width="180" height="30" as="alternateBounds" />
          </mxGeometry>
        </mxCell>
        <mxCell id="qxyERZ4D7mE2W_aF4MiE-119" value="INTEGER" style="shape=partialRectangle;connectable=0;fillColor=none;top=1;left=1;bottom=1;right=1;align=right;spacingLeft=5;fontStyle=0;overflow=hidden;html=1;whiteSpace=wrap;spacingRight=5;fontSize=14;strokeColor=default;verticalAlign=middle;fontFamily=Helvetica;fontColor=default;" parent="qxyERZ4D7mE2W_aF4MiE-82" vertex="1">
          <mxGeometry x="160" y="200" width="160" height="40" as="geometry">
            <mxRectangle width="180" height="30" as="alternateBounds" />
          </mxGeometry>
        </mxCell>
        <mxCell id="qxyERZ4D7mE2W_aF4MiE-120" value="user_id" style="shape=partialRectangle;connectable=0;fillColor=none;top=1;left=0;bottom=0;right=1;align=left;spacingLeft=5;fontStyle=0;overflow=hidden;html=1;whiteSpace=wrap;spacingRight=5;fontSize=16;strokeColor=default;verticalAlign=middle;fontFamily=Helvetica;fontColor=default;" parent="qxyERZ4D7mE2W_aF4MiE-82" vertex="1">
          <mxGeometry y="200" width="160" height="40" as="geometry">
            <mxRectangle width="180" height="30" as="alternateBounds" />
          </mxGeometry>
        </mxCell>
        <mxCell id="qxyERZ4D7mE2W_aF4MiE-121" value="&lt;div&gt;FK,&lt;/div&gt;&lt;div&gt;ON DELETE CASCADE&lt;/div&gt;" style="shape=partialRectangle;connectable=0;fillColor=none;top=1;left=1;bottom=0;right=0;align=left;spacingLeft=5;fontStyle=0;overflow=hidden;html=1;whiteSpace=wrap;spacingRight=5;fontSize=12;strokeColor=default;verticalAlign=middle;fontFamily=Helvetica;fontColor=default;" parent="qxyERZ4D7mE2W_aF4MiE-82" vertex="1">
          <mxGeometry x="320" y="200" width="160" height="40" as="geometry">
            <mxRectangle width="180" height="30" as="alternateBounds" />
          </mxGeometry>
        </mxCell>
        <mxCell id="qxyERZ4D7mE2W_aF4MiE-125" value="tags" style="swimlane;whiteSpace=wrap;html=1;startSize=40;fontStyle=1;fontSize=20;fillColor=light-dark(#FFCD28,#000000);gradientColor=light-dark(#FFA500,#0069BF);strokeColor=default;strokeWidth=2;rounded=1;" parent="1" vertex="1">
          <mxGeometry x="1320" y="-800" width="480" height="80" as="geometry" />
        </mxCell>
        <mxCell id="qxyERZ4D7mE2W_aF4MiE-129" value="VARCHAR(64)" style="shape=partialRectangle;connectable=0;fillColor=none;top=1;left=1;bottom=1;right=1;align=right;spacingLeft=5;fontStyle=0;overflow=hidden;html=1;whiteSpace=wrap;spacingRight=5;fontSize=14;strokeColor=default;verticalAlign=middle;fontFamily=Helvetica;fontColor=default;" parent="qxyERZ4D7mE2W_aF4MiE-125" vertex="1">
          <mxGeometry x="160" y="40" width="160" height="40" as="geometry">
            <mxRectangle width="180" height="30" as="alternateBounds" />
          </mxGeometry>
        </mxCell>
        <mxCell id="qxyERZ4D7mE2W_aF4MiE-130" value="name" style="shape=partialRectangle;connectable=0;fillColor=none;top=1;left=0;bottom=0;right=1;align=left;spacingLeft=5;fontStyle=0;overflow=hidden;html=1;whiteSpace=wrap;spacingRight=5;fontSize=16;strokeColor=default;verticalAlign=middle;fontFamily=Helvetica;fontColor=default;" parent="qxyERZ4D7mE2W_aF4MiE-125" vertex="1">
          <mxGeometry y="40" width="160" height="40" as="geometry">
            <mxRectangle width="180" height="30" as="alternateBounds" />
          </mxGeometry>
        </mxCell>
        <mxCell id="qxyERZ4D7mE2W_aF4MiE-131" value="PK" style="shape=partialRectangle;connectable=0;fillColor=none;top=1;left=1;bottom=0;right=0;align=left;spacingLeft=5;fontStyle=0;overflow=hidden;html=1;whiteSpace=wrap;spacingRight=5;fontSize=12;strokeColor=default;verticalAlign=middle;fontFamily=Helvetica;fontColor=default;" parent="qxyERZ4D7mE2W_aF4MiE-125" vertex="1">
          <mxGeometry x="320" y="40" width="160" height="40" as="geometry">
            <mxRectangle width="180" height="30" as="alternateBounds" />
          </mxGeometry>
        </mxCell>
        <mxCell id="qxyERZ4D7mE2W_aF4MiE-142" value="events_tags" style="swimlane;whiteSpace=wrap;html=1;startSize=40;fontStyle=1;fontSize=20;fillColor=light-dark(#000000,#0047AB);strokeColor=default;fontColor=default;labelBackgroundColor=none;gradientColor=light-dark(#000000,#008C13);gradientDirection=west;swimlaneFillColor=none;opacity=80;strokeWidth=2;rounded=1;" parent="1" vertex="1">
          <mxGeometry x="1000" y="-400" width="480" height="160" as="geometry" />
        </mxCell>
        <mxCell id="qxyERZ4D7mE2W_aF4MiE-143" value="BIGINT" style="shape=partialRectangle;connectable=0;fillColor=none;top=1;left=1;bottom=1;right=1;align=right;spacingLeft=5;fontStyle=0;overflow=hidden;html=1;whiteSpace=wrap;spacingRight=5;fontSize=14;strokeColor=default;verticalAlign=middle;fontFamily=Helvetica;fontColor=default;" parent="qxyERZ4D7mE2W_aF4MiE-142" vertex="1">
          <mxGeometry x="160" y="40" width="160" height="40" as="geometry">
            <mxRectangle width="180" height="30" as="alternateBounds" />
          </mxGeometry>
        </mxCell>
        <mxCell id="qxyERZ4D7mE2W_aF4MiE-144" value="event_id" style="shape=partialRectangle;connectable=0;fillColor=none;top=1;left=1;bottom=1;right=1;align=left;spacingLeft=5;fontStyle=0;overflow=hidden;html=1;whiteSpace=wrap;spacingRight=5;fontSize=16;strokeColor=default;verticalAlign=middle;fontFamily=Helvetica;fontColor=default;" parent="qxyERZ4D7mE2W_aF4MiE-142" vertex="1">
          <mxGeometry y="40" width="160" height="40" as="geometry">
            <mxRectangle width="180" height="30" as="alternateBounds" />
          </mxGeometry>
        </mxCell>
        <mxCell id="qxyERZ4D7mE2W_aF4MiE-145" value="&lt;div&gt;FK,&lt;/div&gt;&lt;div&gt;ON DELETE CASCADE&lt;br&gt;&lt;/div&gt;" style="shape=partialRectangle;connectable=0;fillColor=none;top=1;left=1;bottom=1;right=1;align=left;spacingLeft=5;fontStyle=0;overflow=hidden;html=1;whiteSpace=wrap;spacingRight=5;fontSize=12;strokeColor=default;verticalAlign=middle;fontFamily=Helvetica;fontColor=default;" parent="qxyERZ4D7mE2W_aF4MiE-142" vertex="1">
          <mxGeometry x="320" y="40" width="160" height="40" as="geometry">
            <mxRectangle width="180" height="30" as="alternateBounds" />
          </mxGeometry>
        </mxCell>
        <mxCell id="qxyERZ4D7mE2W_aF4MiE-146" value="VARCHAR(64)" style="shape=partialRectangle;connectable=0;fillColor=none;top=1;left=1;bottom=1;right=1;align=right;spacingLeft=5;fontStyle=0;overflow=hidden;html=1;whiteSpace=wrap;spacingRight=5;fontSize=14;strokeColor=default;verticalAlign=middle;fontFamily=Helvetica;fontColor=default;" parent="qxyERZ4D7mE2W_aF4MiE-142" vertex="1">
          <mxGeometry x="160" y="80" width="160" height="40" as="geometry">
            <mxRectangle width="180" height="30" as="alternateBounds" />
          </mxGeometry>
        </mxCell>
        <mxCell id="qxyERZ4D7mE2W_aF4MiE-147" value="tag_name" style="shape=partialRectangle;connectable=0;fillColor=none;top=1;left=1;bottom=1;right=1;align=left;spacingLeft=5;fontStyle=0;overflow=hidden;html=1;whiteSpace=wrap;spacingRight=5;fontSize=16;strokeColor=default;verticalAlign=middle;fontFamily=Helvetica;fontColor=default;" parent="qxyERZ4D7mE2W_aF4MiE-142" vertex="1">
          <mxGeometry y="80" width="160" height="40" as="geometry">
            <mxRectangle width="180" height="30" as="alternateBounds" />
          </mxGeometry>
        </mxCell>
        <mxCell id="qxyERZ4D7mE2W_aF4MiE-148" value="&lt;div&gt;FK,&lt;/div&gt;&lt;div&gt;ON DELETE CASCADE&lt;br&gt;&lt;/div&gt;" style="shape=partialRectangle;connectable=0;fillColor=none;top=1;left=1;bottom=1;right=1;align=left;spacingLeft=5;fontStyle=0;overflow=hidden;html=1;whiteSpace=wrap;spacingRight=5;fontSize=12;strokeColor=default;verticalAlign=middle;fontFamily=Helvetica;fontColor=default;" parent="qxyERZ4D7mE2W_aF4MiE-142" vertex="1">
          <mxGeometry x="320" y="80" width="160" height="40" as="geometry">
            <mxRectangle width="180" height="30" as="alternateBounds" />
          </mxGeometry>
        </mxCell>
        <mxCell id="qxyERZ4D7mE2W_aF4MiE-151" value="PRIMARY KEY (event_id, tag_id)" style="shape=partialRectangle;connectable=0;fillColor=none;top=1;left=0;bottom=0;right=0;align=center;spacingLeft=5;fontStyle=0;overflow=hidden;html=1;whiteSpace=wrap;spacingRight=5;fontSize=12;strokeColor=default;verticalAlign=middle;fontFamily=Helvetica;fontColor=default;" parent="qxyERZ4D7mE2W_aF4MiE-142" vertex="1">
          <mxGeometry y="120" width="480" height="40" as="geometry">
            <mxRectangle width="180" height="30" as="alternateBounds" />
          </mxGeometry>
        </mxCell>
        <mxCell id="qxyERZ4D7mE2W_aF4MiE-153" value="" style="edgeStyle=elbowEdgeStyle;fontSize=12;html=1;endArrow=ERoneToMany;rounded=0;exitX=0.5;exitY=1;exitDx=0;exitDy=0;strokeWidth=1;endSize=20;elbow=vertical;entryX=0.75;entryY=0;entryDx=0;entryDy=0;" parent="1" source="qxyERZ4D7mE2W_aF4MiE-125" target="qxyERZ4D7mE2W_aF4MiE-142" edge="1">
          <mxGeometry width="100" height="100" relative="1" as="geometry">
            <mxPoint x="1270" y="-560" as="sourcePoint" />
            <mxPoint x="1340" y="-460" as="targetPoint" />
            <Array as="points">
              <mxPoint x="1470" y="-480" />
            </Array>
          </mxGeometry>
        </mxCell>
        <mxCell id="qxyERZ4D7mE2W_aF4MiE-154" value="" style="edgeStyle=elbowEdgeStyle;fontSize=12;html=1;endArrow=ERoneToMany;rounded=0;exitX=0.5;exitY=1;exitDx=0;exitDy=0;strokeWidth=1;endSize=20;entryX=0.25;entryY=0;entryDx=0;entryDy=0;elbow=vertical;" parent="1" source="qxyERZ4D7mE2W_aF4MiE-82" target="qxyERZ4D7mE2W_aF4MiE-142" edge="1">
          <mxGeometry width="100" height="100" relative="1" as="geometry">
            <mxPoint x="990" y="-490" as="sourcePoint" />
            <mxPoint x="990" y="-420" as="targetPoint" />
          </mxGeometry>
        </mxCell>
        <mxCell id="k0qKDHFTOWTs9ywvlTUG-12" value="&lt;b&gt;&lt;font style=&quot;font-size: 20px;&quot;&gt;Terminal&lt;/font&gt;&lt;/b&gt;" style="swimlane;childLayout=stackLayout;horizontal=1;startSize=50;horizontalStack=0;rounded=1;fontSize=16;fontStyle=1;strokeWidth=2;resizeParent=0;resizeLast=1;shadow=0;dashed=0;align=center;arcSize=4;whiteSpace=wrap;html=1;fillColor=light-dark(#FFFFFF,#242424);swimlaneHead=1;swimlaneBody=1;absoluteArcSize=0;container=1;autosize=0;strokeColor=light-dark(#000000,#BFBFBF);glass=0;swimlaneLine=0;resizable=1;autosizeGrid=1;backgroundOutline=0;overflow=visible;pointerEvents=1;" parent="1" vertex="1">
          <mxGeometry x="2120" y="-1080" width="720" height="840" as="geometry">
            <mxRectangle x="-800" y="-800" width="200" height="50" as="alternateBounds" />
          </mxGeometry>
        </mxCell>
        <mxCell id="k0qKDHFTOWTs9ywvlTUG-13" value="&lt;div&gt;&lt;br&gt;&lt;/div&gt;&lt;div style=&quot;line-height: 140%;&quot;&gt;CREATE TABLE events (&lt;/div&gt;&lt;div style=&quot;line-height: 140%;&quot;&gt;id BIGSERIAL PRIMARY KEY,&lt;/div&gt;&lt;div style=&quot;line-height: 140%;&quot;&gt;title VARCHAR(64) UNIQUE NOT NULL,&lt;/div&gt;&lt;div style=&quot;line-height: 140%;&quot;&gt;day DATE NOT NULL,&lt;/div&gt;&lt;div style=&quot;line-height: 140%;&quot;&gt;description TEXT,&lt;/div&gt;&lt;div style=&quot;line-height: 140%;&quot;&gt;user_id VARCHAR(32) REFERENCES users(id) ON DELETE CASCADE);&lt;/div&gt;&lt;div&gt;&lt;br&gt;&lt;/div&gt;&lt;div style=&quot;line-height: 140%;&quot;&gt;CREATE TABLE events_tags (&lt;/div&gt;&lt;div style=&quot;line-height: 140%;&quot;&gt;event_id INTEGER NOT NULL&amp;nbsp;REFERENCES events(id) ON DELETE CASCADE,&lt;/div&gt;&lt;div style=&quot;line-height: 140%;&quot;&gt;tag_id INTEGER&amp;nbsp;REFERENCES tags(id),&lt;br&gt;&lt;/div&gt;&lt;div style=&quot;line-height: 140%;&quot;&gt;PRIMARY KEY (event_id, tag_id));&lt;/div&gt;&lt;div style=&quot;line-height: 140%;&quot;&gt;&lt;br&gt;&lt;/div&gt;&lt;div style=&quot;line-height: 140%;&quot;&gt;ALTER TABLE events_tags&amp;nbsp;&lt;/div&gt;&lt;div style=&quot;line-height: 140%;&quot;&gt;ADD CONSTRAINT events_tags_tag_id_fkey&amp;nbsp;&lt;/div&gt;&lt;div style=&quot;line-height: 140%;&quot;&gt;FOREIGN KEY (tag_id) REFERENCES tags(id) ON DELETE CASCADE;&lt;/div&gt;&lt;div style=&quot;line-height: 140%;&quot;&gt;&lt;br&gt;&lt;/div&gt;&lt;div style=&quot;line-height: 140%;&quot;&gt;&lt;div style=&quot;line-height: 140%;&quot;&gt;-- Набор тегов у каждого события&lt;/div&gt;&lt;div style=&quot;line-height: 140%;&quot;&gt;SELECT events.title AS event, tags.name AS tag FROM events&lt;/div&gt;&lt;div style=&quot;line-height: 140%;&quot;&gt;JOIN events_tags ON events_tags.event_id = events.id&lt;/div&gt;&lt;div style=&quot;line-height: 140%;&quot;&gt;JOIN tags ON tags.id = events_tags.tag_id&lt;/div&gt;ORDER BY event;&lt;/div&gt;&lt;div style=&quot;line-height: 140%;&quot;&gt;&lt;br&gt;&lt;/div&gt;&lt;div style=&quot;line-height: 140%;&quot;&gt;-- Набор уникальных тегов у каждого пользователья&lt;/div&gt;&lt;div style=&quot;line-height: 140%;&quot;&gt;SELECT users.login, tags.name AS tag FROM users&lt;br&gt;JOIN&amp;nbsp; events ON events.user_id = users.id&lt;/div&gt;&lt;div style=&quot;line-height: 140%;&quot;&gt;JOIN events_tags ON events_tags.event_id = events.id&lt;/div&gt;&lt;div style=&quot;line-height: 140%;&quot;&gt;JOIN tags ON tags.id = events_tags.tag_id&lt;/div&gt;&lt;div style=&quot;line-height: 140%;&quot;&gt;GROUP BY users.login, tags.name&lt;br&gt;&lt;/div&gt;&lt;div style=&quot;line-height: 140%;&quot;&gt;ORDER BY users.login;&lt;/div&gt;&lt;div style=&quot;line-height: 140%;&quot;&gt;&lt;br&gt;&lt;/div&gt;&lt;div style=&quot;line-height: 140%;&quot;&gt;ALTER TABLE events_tags&lt;br&gt;ALTER COLUMN event_id TYPE BIGINT;&lt;/div&gt;" style="align=left;strokeColor=light-dark(#000000,#BFBFBF);fillColor=light-dark(#FFFFFF,#2B0920);spacingLeft=10;fontSize=16;verticalAlign=top;resizable=0;rotatable=0;part=1;html=1;strokeWidth=1;backgroundOutline=0;overflow=visible;noLabel=0;imageAspect=1;treeMoving=0;" parent="k0qKDHFTOWTs9ywvlTUG-12" vertex="1">
          <mxGeometry y="50" width="720" height="790" as="geometry" />
        </mxCell>
        <mxCell id="5Fpy2MhAprfWzC79-gw4-1" value="photos" style="swimlane;whiteSpace=wrap;html=1;startSize=40;fontStyle=1;fontSize=20;fillColor=light-dark(#F8CECC,#000000);strokeColor=default;gradientColor=light-dark(#EA6B66,#8F0000);strokeWidth=2;rounded=1;" parent="1" vertex="1">
          <mxGeometry x="40" y="-800" width="480" height="240" as="geometry" />
        </mxCell>
        <mxCell id="5Fpy2MhAprfWzC79-gw4-2" value="BIGSERIAL" style="shape=partialRectangle;connectable=0;fillColor=none;top=1;left=1;bottom=1;right=1;align=right;spacingLeft=5;fontStyle=0;overflow=hidden;html=1;whiteSpace=wrap;spacingRight=5;fontSize=14;strokeColor=default;verticalAlign=middle;fontFamily=Helvetica;fontColor=default;" parent="5Fpy2MhAprfWzC79-gw4-1" vertex="1">
          <mxGeometry x="160" y="40" width="160" height="40" as="geometry">
            <mxRectangle width="180" height="30" as="alternateBounds" />
          </mxGeometry>
        </mxCell>
        <mxCell id="5Fpy2MhAprfWzC79-gw4-3" value="&lt;div align=&quot;left&quot;&gt;id&lt;/div&gt;" style="shape=partialRectangle;connectable=0;fillColor=none;top=1;left=1;bottom=1;right=1;align=left;spacingLeft=5;fontStyle=0;overflow=hidden;html=1;whiteSpace=wrap;spacingRight=5;fontSize=16;strokeColor=default;verticalAlign=middle;fontFamily=Helvetica;fontColor=default;" parent="5Fpy2MhAprfWzC79-gw4-1" vertex="1">
          <mxGeometry y="40" width="160" height="40" as="geometry">
            <mxRectangle width="180" height="30" as="alternateBounds" />
          </mxGeometry>
        </mxCell>
        <mxCell id="5Fpy2MhAprfWzC79-gw4-4" value="PK" style="shape=partialRectangle;connectable=0;fillColor=none;top=1;left=1;bottom=1;right=1;align=left;spacingLeft=5;fontStyle=0;overflow=hidden;html=1;whiteSpace=wrap;spacingRight=5;fontSize=12;strokeColor=default;verticalAlign=middle;fontFamily=Helvetica;fontColor=default;" parent="5Fpy2MhAprfWzC79-gw4-1" vertex="1">
          <mxGeometry x="320" y="40" width="160" height="40" as="geometry">
            <mxRectangle width="180" height="30" as="alternateBounds" />
          </mxGeometry>
        </mxCell>
        <mxCell id="5Fpy2MhAprfWzC79-gw4-5" value="VARCHAR(256)" style="shape=partialRectangle;connectable=0;fillColor=none;top=1;left=1;bottom=1;right=1;align=right;spacingLeft=5;fontStyle=0;overflow=hidden;html=1;whiteSpace=wrap;spacingRight=5;fontSize=14;strokeColor=default;verticalAlign=middle;fontFamily=Helvetica;fontColor=default;" parent="5Fpy2MhAprfWzC79-gw4-1" vertex="1">
          <mxGeometry x="160" y="80" width="160" height="40" as="geometry">
            <mxRectangle width="180" height="30" as="alternateBounds" />
          </mxGeometry>
        </mxCell>
        <mxCell id="5Fpy2MhAprfWzC79-gw4-6" value="path" style="shape=partialRectangle;connectable=0;fillColor=none;top=1;left=1;bottom=1;right=1;align=left;spacingLeft=5;fontStyle=0;overflow=hidden;html=1;whiteSpace=wrap;spacingRight=5;fontSize=16;strokeColor=default;verticalAlign=middle;fontFamily=Helvetica;fontColor=default;" parent="5Fpy2MhAprfWzC79-gw4-1" vertex="1">
          <mxGeometry y="80" width="160" height="40" as="geometry">
            <mxRectangle width="180" height="30" as="alternateBounds" />
          </mxGeometry>
        </mxCell>
        <mxCell id="5Fpy2MhAprfWzC79-gw4-7" value="UNIQUE, NOT NULL" style="shape=partialRectangle;connectable=0;fillColor=none;top=1;left=1;bottom=1;right=1;align=left;spacingLeft=5;fontStyle=0;overflow=hidden;html=1;whiteSpace=wrap;spacingRight=5;fontSize=12;strokeColor=default;verticalAlign=middle;fontFamily=Helvetica;fontColor=default;" parent="5Fpy2MhAprfWzC79-gw4-1" vertex="1">
          <mxGeometry x="320" y="80" width="160" height="40" as="geometry">
            <mxRectangle width="180" height="30" as="alternateBounds" />
          </mxGeometry>
        </mxCell>
        <mxCell id="5Fpy2MhAprfWzC79-gw4-8" value="SMALLINT" style="shape=partialRectangle;connectable=0;fillColor=none;top=1;left=1;bottom=1;right=1;align=right;spacingLeft=5;fontStyle=0;overflow=hidden;html=1;whiteSpace=wrap;spacingRight=5;fontSize=14;strokeColor=default;verticalAlign=middle;fontFamily=Helvetica;fontColor=default;" parent="5Fpy2MhAprfWzC79-gw4-1" vertex="1">
          <mxGeometry x="160" y="120" width="160" height="40" as="geometry">
            <mxRectangle width="180" height="30" as="alternateBounds" />
          </mxGeometry>
        </mxCell>
        <mxCell id="5Fpy2MhAprfWzC79-gw4-9" value="width" style="shape=partialRectangle;connectable=0;fillColor=none;top=1;left=1;bottom=1;right=1;align=left;spacingLeft=5;fontStyle=0;overflow=hidden;html=1;whiteSpace=wrap;spacingRight=5;fontSize=16;strokeColor=default;verticalAlign=middle;fontFamily=Helvetica;fontColor=default;" parent="5Fpy2MhAprfWzC79-gw4-1" vertex="1">
          <mxGeometry y="120" width="160" height="40" as="geometry">
            <mxRectangle width="180" height="30" as="alternateBounds" />
          </mxGeometry>
        </mxCell>
        <mxCell id="5Fpy2MhAprfWzC79-gw4-10" value="NOT NULL" style="shape=partialRectangle;connectable=0;fillColor=none;top=1;left=1;bottom=1;right=1;align=left;spacingLeft=5;fontStyle=0;overflow=hidden;html=1;whiteSpace=wrap;spacingRight=5;fontSize=12;strokeColor=default;verticalAlign=middle;fontFamily=Helvetica;fontColor=default;" parent="5Fpy2MhAprfWzC79-gw4-1" vertex="1">
          <mxGeometry x="320" y="120" width="160" height="40" as="geometry">
            <mxRectangle width="180" height="30" as="alternateBounds" />
          </mxGeometry>
        </mxCell>
        <mxCell id="5Fpy2MhAprfWzC79-gw4-11" value="BIGINT" style="shape=partialRectangle;connectable=0;fillColor=none;top=1;left=1;bottom=1;right=1;align=right;spacingLeft=5;fontStyle=0;overflow=hidden;html=1;whiteSpace=wrap;spacingRight=5;fontSize=14;strokeColor=default;verticalAlign=middle;fontFamily=Helvetica;fontColor=default;" parent="5Fpy2MhAprfWzC79-gw4-1" vertex="1">
          <mxGeometry x="160" y="200" width="160" height="40" as="geometry">
            <mxRectangle width="180" height="30" as="alternateBounds" />
          </mxGeometry>
        </mxCell>
        <mxCell id="5Fpy2MhAprfWzC79-gw4-12" value="event_id" style="shape=partialRectangle;connectable=0;fillColor=none;top=1;left=0;bottom=0;right=1;align=left;spacingLeft=5;fontStyle=0;overflow=hidden;html=1;whiteSpace=wrap;spacingRight=5;fontSize=16;strokeColor=default;verticalAlign=middle;fontFamily=Helvetica;fontColor=default;" parent="5Fpy2MhAprfWzC79-gw4-1" vertex="1">
          <mxGeometry y="200" width="160" height="40" as="geometry">
            <mxRectangle width="180" height="30" as="alternateBounds" />
          </mxGeometry>
        </mxCell>
        <mxCell id="5Fpy2MhAprfWzC79-gw4-13" value="FK,&lt;br&gt;ON DELETE CASCADE" style="shape=partialRectangle;connectable=0;fillColor=none;top=1;left=1;bottom=0;right=0;align=left;spacingLeft=5;fontStyle=0;overflow=hidden;html=1;whiteSpace=wrap;spacingRight=5;fontSize=12;strokeColor=default;verticalAlign=middle;fontFamily=Helvetica;fontColor=default;" parent="5Fpy2MhAprfWzC79-gw4-1" vertex="1">
          <mxGeometry x="320" y="200" width="160" height="40" as="geometry">
            <mxRectangle width="180" height="30" as="alternateBounds" />
          </mxGeometry>
        </mxCell>
        <mxCell id="5Fpy2MhAprfWzC79-gw4-44" value="SMALLINT" style="shape=partialRectangle;connectable=0;fillColor=none;top=1;left=1;bottom=1;right=1;align=right;spacingLeft=5;fontStyle=0;overflow=hidden;html=1;whiteSpace=wrap;spacingRight=5;fontSize=14;strokeColor=default;verticalAlign=middle;fontFamily=Helvetica;fontColor=default;" parent="5Fpy2MhAprfWzC79-gw4-1" vertex="1">
          <mxGeometry x="160" y="160" width="160" height="40" as="geometry">
            <mxRectangle width="180" height="30" as="alternateBounds" />
          </mxGeometry>
        </mxCell>
        <mxCell id="5Fpy2MhAprfWzC79-gw4-46" value="height" style="shape=partialRectangle;connectable=0;fillColor=none;top=1;left=1;bottom=1;right=1;align=left;spacingLeft=5;fontStyle=0;overflow=hidden;html=1;whiteSpace=wrap;spacingRight=5;fontSize=16;strokeColor=default;verticalAlign=middle;fontFamily=Helvetica;fontColor=default;" parent="5Fpy2MhAprfWzC79-gw4-1" vertex="1">
          <mxGeometry y="160" width="160" height="40" as="geometry">
            <mxRectangle width="180" height="30" as="alternateBounds" />
          </mxGeometry>
        </mxCell>
        <mxCell id="5Fpy2MhAprfWzC79-gw4-48" value="NOT NULL" style="shape=partialRectangle;connectable=0;fillColor=none;top=1;left=1;bottom=1;right=1;align=left;spacingLeft=5;fontStyle=0;overflow=hidden;html=1;whiteSpace=wrap;spacingRight=5;fontSize=12;strokeColor=default;verticalAlign=middle;fontFamily=Helvetica;fontColor=default;" parent="5Fpy2MhAprfWzC79-gw4-1" vertex="1">
          <mxGeometry x="320" y="160" width="160" height="40" as="geometry">
            <mxRectangle width="180" height="30" as="alternateBounds" />
          </mxGeometry>
        </mxCell>
        <mxCell id="5Fpy2MhAprfWzC79-gw4-17" value="" style="edgeStyle=elbowEdgeStyle;fontSize=12;html=1;endArrow=ERoneToMany;rounded=0;elbow=vertical;entryX=0.5;entryY=0;entryDx=0;entryDy=0;exitX=0.5;exitY=1;exitDx=0;exitDy=0;endSize=20;" parent="1" source="qxyERZ4D7mE2W_aF4MiE-60" target="qxyERZ4D7mE2W_aF4MiE-82" edge="1">
          <mxGeometry width="100" height="100" relative="1" as="geometry">
            <mxPoint x="920" y="-940" as="sourcePoint" />
            <mxPoint x="930" y="-840" as="targetPoint" />
          </mxGeometry>
        </mxCell>
        <mxCell id="5Fpy2MhAprfWzC79-gw4-27" value="" style="edgeStyle=elbowEdgeStyle;fontSize=12;html=1;endArrow=ERoneToMany;rounded=0;strokeWidth=1;endSize=20;exitX=0;exitY=0.5;exitDx=0;exitDy=0;entryX=1;entryY=0.5;entryDx=0;entryDy=0;" parent="1" source="qxyERZ4D7mE2W_aF4MiE-82" target="5Fpy2MhAprfWzC79-gw4-1" edge="1">
          <mxGeometry width="100" height="100" relative="1" as="geometry">
            <mxPoint x="680" y="-750" as="sourcePoint" />
            <mxPoint x="530" y="-760" as="targetPoint" />
          </mxGeometry>
        </mxCell>
        <mxCell id="uECFME4bFshtPmdQIp78-5" value="10" style="shape=partialRectangle;connectable=0;fillColor=default;top=1;left=1;bottom=1;right=1;align=center;spacingLeft=5;fontStyle=0;overflow=hidden;html=1;whiteSpace=wrap;spacingRight=5;fontSize=14;strokeColor=default;verticalAlign=middle;fontFamily=Helvetica;fontColor=default;" parent="1" vertex="1">
          <mxGeometry x="3880" y="-1000" width="40" height="40" as="geometry">
            <mxRectangle width="180" height="30" as="alternateBounds" />
          </mxGeometry>
        </mxCell>
        <mxCell id="uECFME4bFshtPmdQIp78-6" value="20" style="shape=partialRectangle;connectable=0;fillColor=default;top=1;left=1;bottom=1;right=1;align=center;spacingLeft=5;fontStyle=0;overflow=hidden;html=1;whiteSpace=wrap;spacingRight=5;fontSize=14;strokeColor=default;verticalAlign=middle;fontFamily=Helvetica;fontColor=default;" parent="1" vertex="1">
          <mxGeometry x="3920" y="-1000" width="40" height="40" as="geometry">
            <mxRectangle width="180" height="30" as="alternateBounds" />
          </mxGeometry>
        </mxCell>
        <mxCell id="uECFME4bFshtPmdQIp78-7" value="30" style="shape=partialRectangle;connectable=0;fillColor=default;top=1;left=1;bottom=1;right=1;align=center;spacingLeft=5;fontStyle=0;overflow=hidden;html=1;whiteSpace=wrap;spacingRight=5;fontSize=14;strokeColor=default;verticalAlign=middle;fontFamily=Helvetica;fontColor=default;" parent="1" vertex="1">
          <mxGeometry x="3960" y="-1000" width="40" height="40" as="geometry">
            <mxRectangle width="180" height="30" as="alternateBounds" />
          </mxGeometry>
        </mxCell>
        <mxCell id="uECFME4bFshtPmdQIp78-8" value="40" style="shape=partialRectangle;connectable=0;fillColor=default;top=1;left=1;bottom=1;right=1;align=center;spacingLeft=5;fontStyle=0;overflow=hidden;html=1;whiteSpace=wrap;spacingRight=5;fontSize=14;strokeColor=default;verticalAlign=middle;fontFamily=Helvetica;fontColor=default;" parent="1" vertex="1">
          <mxGeometry x="4000" y="-1000" width="40" height="40" as="geometry">
            <mxRectangle width="180" height="30" as="alternateBounds" />
          </mxGeometry>
        </mxCell>
        <mxCell id="uECFME4bFshtPmdQIp78-9" value="50" style="shape=partialRectangle;connectable=0;fillColor=default;top=1;left=1;bottom=1;right=1;align=center;spacingLeft=5;fontStyle=0;overflow=hidden;html=1;whiteSpace=wrap;spacingRight=5;fontSize=14;strokeColor=default;verticalAlign=middle;fontFamily=Helvetica;fontColor=default;" parent="1" vertex="1">
          <mxGeometry x="4040" y="-1000" width="40" height="40" as="geometry">
            <mxRectangle width="180" height="30" as="alternateBounds" />
          </mxGeometry>
        </mxCell>
        <mxCell id="uECFME4bFshtPmdQIp78-14" value="#" style="shape=partialRectangle;connectable=0;fillColor=#f5f5f5;top=1;left=1;bottom=1;right=1;align=center;spacingLeft=5;fontStyle=0;overflow=hidden;html=1;whiteSpace=wrap;spacingRight=5;fontSize=14;verticalAlign=middle;fontFamily=Helvetica;strokeColor=#666666;gradientColor=#b3b3b3;" parent="1" vertex="1">
          <mxGeometry x="3760" y="-880" width="40" height="40" as="geometry">
            <mxRectangle width="180" height="30" as="alternateBounds" />
          </mxGeometry>
        </mxCell>
        <mxCell id="uECFME4bFshtPmdQIp78-15" value="30" style="shape=partialRectangle;connectable=0;fillColor=default;top=1;left=1;bottom=1;right=1;align=center;spacingLeft=5;fontStyle=0;overflow=hidden;html=1;whiteSpace=wrap;spacingRight=5;fontSize=14;strokeColor=default;verticalAlign=middle;fontFamily=Helvetica;fontColor=default;" parent="1" vertex="1">
          <mxGeometry x="3800" y="-880" width="40" height="40" as="geometry">
            <mxRectangle width="180" height="30" as="alternateBounds" />
          </mxGeometry>
        </mxCell>
        <mxCell id="uECFME4bFshtPmdQIp78-16" value="#" style="shape=partialRectangle;connectable=0;fillColor=#f5f5f5;top=1;left=1;bottom=1;right=1;align=center;spacingLeft=5;fontStyle=0;overflow=hidden;html=1;whiteSpace=wrap;spacingRight=5;fontSize=14;strokeColor=#666666;verticalAlign=middle;fontFamily=Helvetica;fontColor=default;gradientColor=#b3b3b3;" parent="1" vertex="1">
          <mxGeometry x="3840" y="-880" width="40" height="40" as="geometry">
            <mxRectangle width="180" height="30" as="alternateBounds" />
          </mxGeometry>
        </mxCell>
        <mxCell id="uECFME4bFshtPmdQIp78-17" value="" style="shape=partialRectangle;connectable=0;fillColor=default;top=1;left=1;bottom=1;right=1;align=center;spacingLeft=5;fontStyle=0;overflow=hidden;html=1;whiteSpace=wrap;spacingRight=5;fontSize=14;strokeColor=default;verticalAlign=middle;fontFamily=Helvetica;fontColor=default;" parent="1" vertex="1">
          <mxGeometry x="3880" y="-880" width="40" height="40" as="geometry">
            <mxRectangle width="180" height="30" as="alternateBounds" />
          </mxGeometry>
        </mxCell>
        <mxCell id="uECFME4bFshtPmdQIp78-18" value="" style="shape=partialRectangle;connectable=0;fillColor=default;top=1;left=1;bottom=1;right=1;align=center;spacingLeft=5;fontStyle=0;overflow=hidden;html=1;whiteSpace=wrap;spacingRight=5;fontSize=14;strokeColor=default;verticalAlign=middle;fontFamily=Helvetica;fontColor=default;" parent="1" vertex="1">
          <mxGeometry x="3920" y="-880" width="40" height="40" as="geometry">
            <mxRectangle width="180" height="30" as="alternateBounds" />
          </mxGeometry>
        </mxCell>
        <mxCell id="uECFME4bFshtPmdQIp78-20" value="Добавляем 80" style="text;html=1;align=center;verticalAlign=middle;resizable=0;points=[];autosize=1;strokeColor=none;fillColor=none;" parent="1" vertex="1">
          <mxGeometry x="3930" y="-920" width="100" height="30" as="geometry" />
        </mxCell>
        <mxCell id="uECFME4bFshtPmdQIp78-21" value="&lt;div&gt;Размер кластера 5 значений + 6 ссылок&lt;/div&gt;" style="text;html=1;align=center;verticalAlign=middle;resizable=0;points=[];autosize=1;strokeColor=none;fillColor=none;fontStyle=0" parent="1" vertex="1">
          <mxGeometry x="3855" y="-1030" width="250" height="30" as="geometry" />
        </mxCell>
        <mxCell id="uECFME4bFshtPmdQIp78-22" value="10" style="shape=partialRectangle;connectable=0;fillColor=default;top=1;left=1;bottom=1;right=1;align=center;spacingLeft=5;fontStyle=0;overflow=hidden;html=1;whiteSpace=wrap;spacingRight=5;fontSize=14;strokeColor=default;verticalAlign=middle;fontFamily=Helvetica;fontColor=default;" parent="1" vertex="1">
          <mxGeometry x="3760" y="-760" width="40" height="40" as="geometry">
            <mxRectangle width="180" height="30" as="alternateBounds" />
          </mxGeometry>
        </mxCell>
        <mxCell id="uECFME4bFshtPmdQIp78-23" value="20" style="shape=partialRectangle;connectable=0;fillColor=default;top=1;left=1;bottom=1;right=1;align=center;spacingLeft=5;fontStyle=0;overflow=hidden;html=1;whiteSpace=wrap;spacingRight=5;fontSize=14;strokeColor=default;verticalAlign=middle;fontFamily=Helvetica;fontColor=default;" parent="1" vertex="1">
          <mxGeometry x="3800" y="-760" width="40" height="40" as="geometry">
            <mxRectangle width="180" height="30" as="alternateBounds" />
          </mxGeometry>
        </mxCell>
        <mxCell id="uECFME4bFshtPmdQIp78-24" value="" style="shape=partialRectangle;connectable=0;fillColor=default;top=1;left=1;bottom=1;right=1;align=center;spacingLeft=5;fontStyle=0;overflow=hidden;html=1;whiteSpace=wrap;spacingRight=5;fontSize=14;strokeColor=default;verticalAlign=middle;fontFamily=Helvetica;fontColor=default;" parent="1" vertex="1">
          <mxGeometry x="3840" y="-760" width="40" height="40" as="geometry">
            <mxRectangle width="180" height="30" as="alternateBounds" />
          </mxGeometry>
        </mxCell>
        <mxCell id="uECFME4bFshtPmdQIp78-25" value="" style="shape=partialRectangle;connectable=0;fillColor=default;top=1;left=1;bottom=1;right=1;align=center;spacingLeft=5;fontStyle=0;overflow=hidden;html=1;whiteSpace=wrap;spacingRight=5;fontSize=14;strokeColor=default;verticalAlign=middle;fontFamily=Helvetica;fontColor=default;" parent="1" vertex="1">
          <mxGeometry x="3880" y="-760" width="40" height="40" as="geometry">
            <mxRectangle width="180" height="30" as="alternateBounds" />
          </mxGeometry>
        </mxCell>
        <mxCell id="uECFME4bFshtPmdQIp78-26" value="" style="shape=partialRectangle;connectable=0;fillColor=default;top=1;left=1;bottom=1;right=1;align=center;spacingLeft=5;fontStyle=0;overflow=hidden;html=1;whiteSpace=wrap;spacingRight=5;fontSize=14;strokeColor=default;verticalAlign=middle;fontFamily=Helvetica;fontColor=default;" parent="1" vertex="1">
          <mxGeometry x="3920" y="-760" width="40" height="40" as="geometry">
            <mxRectangle width="180" height="30" as="alternateBounds" />
          </mxGeometry>
        </mxCell>
        <mxCell id="uECFME4bFshtPmdQIp78-27" value="40" style="shape=partialRectangle;connectable=0;fillColor=default;top=1;left=1;bottom=1;right=1;align=center;spacingLeft=5;fontStyle=0;overflow=hidden;html=1;whiteSpace=wrap;spacingRight=5;fontSize=14;strokeColor=default;verticalAlign=middle;fontFamily=Helvetica;fontColor=default;" parent="1" vertex="1">
          <mxGeometry x="4000" y="-760" width="40" height="40" as="geometry">
            <mxRectangle width="180" height="30" as="alternateBounds" />
          </mxGeometry>
        </mxCell>
        <mxCell id="uECFME4bFshtPmdQIp78-28" value="50" style="shape=partialRectangle;connectable=0;fillColor=default;top=1;left=1;bottom=1;right=1;align=center;spacingLeft=5;fontStyle=0;overflow=hidden;html=1;whiteSpace=wrap;spacingRight=5;fontSize=14;strokeColor=default;verticalAlign=middle;fontFamily=Helvetica;fontColor=default;" parent="1" vertex="1">
          <mxGeometry x="4040" y="-760" width="40" height="40" as="geometry">
            <mxRectangle width="180" height="30" as="alternateBounds" />
          </mxGeometry>
        </mxCell>
        <mxCell id="uECFME4bFshtPmdQIp78-29" value="80" style="shape=partialRectangle;connectable=0;fillColor=default;top=1;left=1;bottom=1;right=1;align=center;spacingLeft=5;fontStyle=0;overflow=hidden;html=1;whiteSpace=wrap;spacingRight=5;fontSize=14;strokeColor=default;verticalAlign=middle;fontFamily=Helvetica;fontColor=default;" parent="1" vertex="1">
          <mxGeometry x="4080" y="-760" width="40" height="40" as="geometry">
            <mxRectangle width="180" height="30" as="alternateBounds" />
          </mxGeometry>
        </mxCell>
        <mxCell id="uECFME4bFshtPmdQIp78-30" value="" style="shape=partialRectangle;connectable=0;fillColor=default;top=1;left=1;bottom=1;right=1;align=center;spacingLeft=5;fontStyle=0;overflow=hidden;html=1;whiteSpace=wrap;spacingRight=5;fontSize=14;strokeColor=default;verticalAlign=middle;fontFamily=Helvetica;fontColor=default;" parent="1" vertex="1">
          <mxGeometry x="4120" y="-760" width="40" height="40" as="geometry">
            <mxRectangle width="180" height="30" as="alternateBounds" />
          </mxGeometry>
        </mxCell>
        <mxCell id="uECFME4bFshtPmdQIp78-31" value="" style="shape=partialRectangle;connectable=0;fillColor=default;top=1;left=1;bottom=1;right=1;align=center;spacingLeft=5;fontStyle=0;overflow=hidden;html=1;whiteSpace=wrap;spacingRight=5;fontSize=14;strokeColor=default;verticalAlign=middle;fontFamily=Helvetica;fontColor=default;" parent="1" vertex="1">
          <mxGeometry x="4160" y="-760" width="40" height="40" as="geometry">
            <mxRectangle width="180" height="30" as="alternateBounds" />
          </mxGeometry>
        </mxCell>
        <mxCell id="uECFME4bFshtPmdQIp78-36" value="" style="endArrow=none;endFill=1;html=1;rounded=0;startFill=0;" parent="1" edge="1">
          <mxGeometry width="160" relative="1" as="geometry">
            <mxPoint x="3780" y="-840" as="sourcePoint" />
            <mxPoint x="3780" y="-760" as="targetPoint" />
          </mxGeometry>
        </mxCell>
        <mxCell id="uECFME4bFshtPmdQIp78-37" value="" style="endArrow=none;endFill=1;html=1;rounded=0;startFill=0;" parent="1" edge="1">
          <mxGeometry width="160" relative="1" as="geometry">
            <mxPoint x="3860" y="-840" as="sourcePoint" />
            <mxPoint x="4020" y="-760" as="targetPoint" />
          </mxGeometry>
        </mxCell>
        <mxCell id="uECFME4bFshtPmdQIp78-38" value="Добавляем 90, 100, 110" style="text;html=1;align=center;verticalAlign=middle;resizable=0;points=[];autosize=1;strokeColor=none;fillColor=none;" parent="1" vertex="1">
          <mxGeometry x="3900" y="-680" width="160" height="30" as="geometry" />
        </mxCell>
        <mxCell id="uECFME4bFshtPmdQIp78-40" value="#" style="shape=partialRectangle;connectable=0;fillColor=#f5f5f5;top=1;left=1;bottom=1;right=1;align=center;spacingLeft=5;fontStyle=0;overflow=hidden;html=1;whiteSpace=wrap;spacingRight=5;fontSize=14;verticalAlign=middle;fontFamily=Helvetica;strokeColor=#666666;gradientColor=#b3b3b3;" parent="1" vertex="1">
          <mxGeometry x="3760" y="-640" width="40" height="40" as="geometry">
            <mxRectangle width="180" height="30" as="alternateBounds" />
          </mxGeometry>
        </mxCell>
        <mxCell id="uECFME4bFshtPmdQIp78-41" value="30" style="shape=partialRectangle;connectable=0;fillColor=default;top=1;left=1;bottom=1;right=1;align=center;spacingLeft=5;fontStyle=0;overflow=hidden;html=1;whiteSpace=wrap;spacingRight=5;fontSize=14;strokeColor=default;verticalAlign=middle;fontFamily=Helvetica;fontColor=default;" parent="1" vertex="1">
          <mxGeometry x="3800" y="-640" width="40" height="40" as="geometry">
            <mxRectangle width="180" height="30" as="alternateBounds" />
          </mxGeometry>
        </mxCell>
        <mxCell id="uECFME4bFshtPmdQIp78-42" value="#" style="shape=partialRectangle;connectable=0;fillColor=#f5f5f5;top=1;left=1;bottom=1;right=1;align=center;spacingLeft=5;fontStyle=0;overflow=hidden;html=1;whiteSpace=wrap;spacingRight=5;fontSize=14;strokeColor=#666666;verticalAlign=middle;fontFamily=Helvetica;fontColor=default;gradientColor=#b3b3b3;" parent="1" vertex="1">
          <mxGeometry x="3840" y="-640" width="40" height="40" as="geometry">
            <mxRectangle width="180" height="30" as="alternateBounds" />
          </mxGeometry>
        </mxCell>
        <mxCell id="uECFME4bFshtPmdQIp78-43" value="80" style="shape=partialRectangle;connectable=0;fillColor=default;top=1;left=1;bottom=1;right=1;align=center;spacingLeft=5;fontStyle=0;overflow=hidden;html=1;whiteSpace=wrap;spacingRight=5;fontSize=14;strokeColor=default;verticalAlign=middle;fontFamily=Helvetica;fontColor=default;" parent="1" vertex="1">
          <mxGeometry x="3880" y="-640" width="40" height="40" as="geometry">
            <mxRectangle width="180" height="30" as="alternateBounds" />
          </mxGeometry>
        </mxCell>
        <mxCell id="uECFME4bFshtPmdQIp78-44" value="#" style="shape=partialRectangle;connectable=0;fillColor=#f5f5f5;top=1;left=1;bottom=1;right=1;align=center;spacingLeft=5;fontStyle=0;overflow=hidden;html=1;whiteSpace=wrap;spacingRight=5;fontSize=14;strokeColor=#666666;verticalAlign=middle;fontFamily=Helvetica;fontColor=default;gradientColor=#b3b3b3;" parent="1" vertex="1">
          <mxGeometry x="3920" y="-640" width="40" height="40" as="geometry">
            <mxRectangle width="180" height="30" as="alternateBounds" />
          </mxGeometry>
        </mxCell>
        <mxCell id="uECFME4bFshtPmdQIp78-45" value="10" style="shape=partialRectangle;connectable=0;fillColor=default;top=1;left=1;bottom=1;right=1;align=center;spacingLeft=5;fontStyle=0;overflow=hidden;html=1;whiteSpace=wrap;spacingRight=5;fontSize=14;strokeColor=default;verticalAlign=middle;fontFamily=Helvetica;fontColor=default;" parent="1" vertex="1">
          <mxGeometry x="3640" y="-520" width="40" height="40" as="geometry">
            <mxRectangle width="180" height="30" as="alternateBounds" />
          </mxGeometry>
        </mxCell>
        <mxCell id="uECFME4bFshtPmdQIp78-46" value="20" style="shape=partialRectangle;connectable=0;fillColor=default;top=1;left=1;bottom=1;right=1;align=center;spacingLeft=5;fontStyle=0;overflow=hidden;html=1;whiteSpace=wrap;spacingRight=5;fontSize=14;strokeColor=default;verticalAlign=middle;fontFamily=Helvetica;fontColor=default;" parent="1" vertex="1">
          <mxGeometry x="3680" y="-520" width="40" height="40" as="geometry">
            <mxRectangle width="180" height="30" as="alternateBounds" />
          </mxGeometry>
        </mxCell>
        <mxCell id="uECFME4bFshtPmdQIp78-47" value="" style="shape=partialRectangle;connectable=0;fillColor=default;top=1;left=1;bottom=1;right=1;align=center;spacingLeft=5;fontStyle=0;overflow=hidden;html=1;whiteSpace=wrap;spacingRight=5;fontSize=14;strokeColor=default;verticalAlign=middle;fontFamily=Helvetica;fontColor=default;" parent="1" vertex="1">
          <mxGeometry x="3720" y="-520" width="40" height="40" as="geometry">
            <mxRectangle width="180" height="30" as="alternateBounds" />
          </mxGeometry>
        </mxCell>
        <mxCell id="uECFME4bFshtPmdQIp78-48" value="" style="shape=partialRectangle;connectable=0;fillColor=default;top=1;left=1;bottom=1;right=1;align=center;spacingLeft=5;fontStyle=0;overflow=hidden;html=1;whiteSpace=wrap;spacingRight=5;fontSize=14;strokeColor=default;verticalAlign=middle;fontFamily=Helvetica;fontColor=default;" parent="1" vertex="1">
          <mxGeometry x="3760" y="-520" width="40" height="40" as="geometry">
            <mxRectangle width="180" height="30" as="alternateBounds" />
          </mxGeometry>
        </mxCell>
        <mxCell id="uECFME4bFshtPmdQIp78-49" value="" style="shape=partialRectangle;connectable=0;fillColor=default;top=1;left=1;bottom=1;right=1;align=center;spacingLeft=5;fontStyle=0;overflow=hidden;html=1;whiteSpace=wrap;spacingRight=5;fontSize=14;strokeColor=default;verticalAlign=middle;fontFamily=Helvetica;fontColor=default;" parent="1" vertex="1">
          <mxGeometry x="3800" y="-520" width="40" height="40" as="geometry">
            <mxRectangle width="180" height="30" as="alternateBounds" />
          </mxGeometry>
        </mxCell>
        <mxCell id="uECFME4bFshtPmdQIp78-50" value="40" style="shape=partialRectangle;connectable=0;fillColor=default;top=1;left=1;bottom=1;right=1;align=center;spacingLeft=5;fontStyle=0;overflow=hidden;html=1;whiteSpace=wrap;spacingRight=5;fontSize=14;strokeColor=default;verticalAlign=middle;fontFamily=Helvetica;fontColor=default;" parent="1" vertex="1">
          <mxGeometry x="3880" y="-520" width="40" height="40" as="geometry">
            <mxRectangle width="180" height="30" as="alternateBounds" />
          </mxGeometry>
        </mxCell>
        <mxCell id="uECFME4bFshtPmdQIp78-51" value="50" style="shape=partialRectangle;connectable=0;fillColor=default;top=1;left=1;bottom=1;right=1;align=center;spacingLeft=5;fontStyle=0;overflow=hidden;html=1;whiteSpace=wrap;spacingRight=5;fontSize=14;strokeColor=default;verticalAlign=middle;fontFamily=Helvetica;fontColor=default;" parent="1" vertex="1">
          <mxGeometry x="3920" y="-520" width="40" height="40" as="geometry">
            <mxRectangle width="180" height="30" as="alternateBounds" />
          </mxGeometry>
        </mxCell>
        <mxCell id="uECFME4bFshtPmdQIp78-52" value="" style="shape=partialRectangle;connectable=0;fillColor=default;top=1;left=1;bottom=1;right=1;align=center;spacingLeft=5;fontStyle=0;overflow=hidden;html=1;whiteSpace=wrap;spacingRight=5;fontSize=14;strokeColor=default;verticalAlign=middle;fontFamily=Helvetica;fontColor=default;" parent="1" vertex="1">
          <mxGeometry x="3960" y="-520" width="40" height="40" as="geometry">
            <mxRectangle width="180" height="30" as="alternateBounds" />
          </mxGeometry>
        </mxCell>
        <mxCell id="uECFME4bFshtPmdQIp78-53" value="" style="shape=partialRectangle;connectable=0;fillColor=default;top=1;left=1;bottom=1;right=1;align=center;spacingLeft=5;fontStyle=0;overflow=hidden;html=1;whiteSpace=wrap;spacingRight=5;fontSize=14;strokeColor=default;verticalAlign=middle;fontFamily=Helvetica;fontColor=default;" parent="1" vertex="1">
          <mxGeometry x="4000" y="-520" width="40" height="40" as="geometry">
            <mxRectangle width="180" height="30" as="alternateBounds" />
          </mxGeometry>
        </mxCell>
        <mxCell id="uECFME4bFshtPmdQIp78-54" value="" style="shape=partialRectangle;connectable=0;fillColor=default;top=1;left=1;bottom=1;right=1;align=center;spacingLeft=5;fontStyle=0;overflow=hidden;html=1;whiteSpace=wrap;spacingRight=5;fontSize=14;strokeColor=default;verticalAlign=middle;fontFamily=Helvetica;fontColor=default;" parent="1" vertex="1">
          <mxGeometry x="4040" y="-520" width="40" height="40" as="geometry">
            <mxRectangle width="180" height="30" as="alternateBounds" />
          </mxGeometry>
        </mxCell>
        <mxCell id="uECFME4bFshtPmdQIp78-55" value="" style="endArrow=none;endFill=1;html=1;rounded=0;startFill=0;" parent="1" edge="1">
          <mxGeometry width="160" relative="1" as="geometry">
            <mxPoint x="3780" y="-600" as="sourcePoint" />
            <mxPoint x="3660" y="-520" as="targetPoint" />
          </mxGeometry>
        </mxCell>
        <mxCell id="uECFME4bFshtPmdQIp78-56" value="" style="endArrow=none;endFill=1;html=1;rounded=0;startFill=0;" parent="1" edge="1">
          <mxGeometry width="160" relative="1" as="geometry">
            <mxPoint x="3860" y="-600" as="sourcePoint" />
            <mxPoint x="3900" y="-520" as="targetPoint" />
          </mxGeometry>
        </mxCell>
        <mxCell id="uECFME4bFshtPmdQIp78-57" value="90" style="shape=partialRectangle;connectable=0;fillColor=default;top=1;left=1;bottom=1;right=1;align=center;spacingLeft=5;fontStyle=0;overflow=hidden;html=1;whiteSpace=wrap;spacingRight=5;fontSize=14;strokeColor=default;verticalAlign=middle;fontFamily=Helvetica;fontColor=default;" parent="1" vertex="1">
          <mxGeometry x="4120" y="-520" width="40" height="40" as="geometry">
            <mxRectangle width="180" height="30" as="alternateBounds" />
          </mxGeometry>
        </mxCell>
        <mxCell id="uECFME4bFshtPmdQIp78-58" value="100" style="shape=partialRectangle;connectable=0;fillColor=default;top=1;left=1;bottom=1;right=1;align=center;spacingLeft=5;fontStyle=0;overflow=hidden;html=1;whiteSpace=wrap;spacingRight=5;fontSize=14;strokeColor=default;verticalAlign=middle;fontFamily=Helvetica;fontColor=default;" parent="1" vertex="1">
          <mxGeometry x="4160" y="-520" width="40" height="40" as="geometry">
            <mxRectangle width="180" height="30" as="alternateBounds" />
          </mxGeometry>
        </mxCell>
        <mxCell id="uECFME4bFshtPmdQIp78-59" value="110" style="shape=partialRectangle;connectable=0;fillColor=default;top=1;left=1;bottom=1;right=1;align=center;spacingLeft=5;fontStyle=0;overflow=hidden;html=1;whiteSpace=wrap;spacingRight=5;fontSize=14;strokeColor=default;verticalAlign=middle;fontFamily=Helvetica;fontColor=default;" parent="1" vertex="1">
          <mxGeometry x="4200" y="-520" width="40" height="40" as="geometry">
            <mxRectangle width="180" height="30" as="alternateBounds" />
          </mxGeometry>
        </mxCell>
        <mxCell id="uECFME4bFshtPmdQIp78-60" value="" style="shape=partialRectangle;connectable=0;fillColor=default;top=1;left=1;bottom=1;right=1;align=center;spacingLeft=5;fontStyle=0;overflow=hidden;html=1;whiteSpace=wrap;spacingRight=5;fontSize=14;strokeColor=default;verticalAlign=middle;fontFamily=Helvetica;fontColor=default;" parent="1" vertex="1">
          <mxGeometry x="4240" y="-520" width="40" height="40" as="geometry">
            <mxRectangle width="180" height="30" as="alternateBounds" />
          </mxGeometry>
        </mxCell>
        <mxCell id="uECFME4bFshtPmdQIp78-61" value="" style="shape=partialRectangle;connectable=0;fillColor=default;top=1;left=1;bottom=1;right=1;align=center;spacingLeft=5;fontStyle=0;overflow=hidden;html=1;whiteSpace=wrap;spacingRight=5;fontSize=14;strokeColor=default;verticalAlign=middle;fontFamily=Helvetica;fontColor=default;" parent="1" vertex="1">
          <mxGeometry x="4280" y="-520" width="40" height="40" as="geometry">
            <mxRectangle width="180" height="30" as="alternateBounds" />
          </mxGeometry>
        </mxCell>
        <mxCell id="uECFME4bFshtPmdQIp78-62" value="" style="endArrow=none;endFill=1;html=1;rounded=0;startFill=0;" parent="1" edge="1">
          <mxGeometry width="160" relative="1" as="geometry">
            <mxPoint x="3940" y="-600" as="sourcePoint" />
            <mxPoint x="4140" y="-520" as="targetPoint" />
          </mxGeometry>
        </mxCell>
        <mxCell id="uECFME4bFshtPmdQIp78-63" value="b_tree" style="text;html=1;align=center;verticalAlign=middle;resizable=0;points=[];autosize=1;strokeColor=#82b366;fillColor=#d5e8d4;fontStyle=0;gradientColor=#97d077;" parent="1" vertex="1">
          <mxGeometry x="3950" y="-1080" width="60" height="30" as="geometry" />
        </mxCell>
        <mxCell id="uECFME4bFshtPmdQIp78-88" value="Добавляем 21, 22, 23, 24, 41, 42, 43, 44, 90, 91, 92, 93, 100, 110" style="text;html=1;align=center;verticalAlign=middle;resizable=0;points=[];autosize=1;strokeColor=none;fillColor=none;" parent="1" vertex="1">
          <mxGeometry x="3790" y="-440" width="380" height="30" as="geometry" />
        </mxCell>
        <mxCell id="uECFME4bFshtPmdQIp78-125" value="" style="shape=partialRectangle;connectable=0;fillColor=default;top=1;left=1;bottom=1;right=1;align=center;spacingLeft=5;fontStyle=0;overflow=hidden;html=1;whiteSpace=wrap;spacingRight=5;fontSize=14;strokeColor=default;verticalAlign=middle;fontFamily=Helvetica;fontColor=default;" parent="1" vertex="1">
          <mxGeometry x="3960" y="-880" width="40" height="40" as="geometry">
            <mxRectangle width="180" height="30" as="alternateBounds" />
          </mxGeometry>
        </mxCell>
        <mxCell id="uECFME4bFshtPmdQIp78-126" value="" style="shape=partialRectangle;connectable=0;fillColor=default;top=1;left=1;bottom=1;right=1;align=center;spacingLeft=5;fontStyle=0;overflow=hidden;html=1;whiteSpace=wrap;spacingRight=5;fontSize=14;strokeColor=default;verticalAlign=middle;fontFamily=Helvetica;fontColor=default;" parent="1" vertex="1">
          <mxGeometry x="4000" y="-880" width="40" height="40" as="geometry">
            <mxRectangle width="180" height="30" as="alternateBounds" />
          </mxGeometry>
        </mxCell>
        <mxCell id="uECFME4bFshtPmdQIp78-127" value="" style="shape=partialRectangle;connectable=0;fillColor=default;top=1;left=1;bottom=1;right=1;align=center;spacingLeft=5;fontStyle=0;overflow=hidden;html=1;whiteSpace=wrap;spacingRight=5;fontSize=14;strokeColor=default;verticalAlign=middle;fontFamily=Helvetica;fontColor=default;" parent="1" vertex="1">
          <mxGeometry x="4040" y="-880" width="40" height="40" as="geometry">
            <mxRectangle width="180" height="30" as="alternateBounds" />
          </mxGeometry>
        </mxCell>
        <mxCell id="uECFME4bFshtPmdQIp78-128" value="" style="shape=partialRectangle;connectable=0;fillColor=default;top=1;left=1;bottom=1;right=1;align=center;spacingLeft=5;fontStyle=0;overflow=hidden;html=1;whiteSpace=wrap;spacingRight=5;fontSize=14;strokeColor=default;verticalAlign=middle;fontFamily=Helvetica;fontColor=default;" parent="1" vertex="1">
          <mxGeometry x="4080" y="-880" width="40" height="40" as="geometry">
            <mxRectangle width="180" height="30" as="alternateBounds" />
          </mxGeometry>
        </mxCell>
        <mxCell id="uECFME4bFshtPmdQIp78-133" value="" style="shape=partialRectangle;connectable=0;fillColor=default;top=1;left=1;bottom=1;right=1;align=center;spacingLeft=5;fontStyle=0;overflow=hidden;html=1;whiteSpace=wrap;spacingRight=5;fontSize=14;strokeColor=default;verticalAlign=middle;fontFamily=Helvetica;fontColor=default;" parent="1" vertex="1">
          <mxGeometry x="4120" y="-880" width="40" height="40" as="geometry">
            <mxRectangle width="180" height="30" as="alternateBounds" />
          </mxGeometry>
        </mxCell>
        <mxCell id="uECFME4bFshtPmdQIp78-134" value="" style="shape=partialRectangle;connectable=0;fillColor=default;top=1;left=1;bottom=1;right=1;align=center;spacingLeft=5;fontStyle=0;overflow=hidden;html=1;whiteSpace=wrap;spacingRight=5;fontSize=14;strokeColor=default;verticalAlign=middle;fontFamily=Helvetica;fontColor=default;" parent="1" vertex="1">
          <mxGeometry x="4160" y="-880" width="40" height="40" as="geometry">
            <mxRectangle width="180" height="30" as="alternateBounds" />
          </mxGeometry>
        </mxCell>
        <mxCell id="uECFME4bFshtPmdQIp78-135" value="" style="shape=partialRectangle;connectable=0;fillColor=default;top=1;left=1;bottom=1;right=1;align=center;spacingLeft=5;fontStyle=0;overflow=hidden;html=1;whiteSpace=wrap;spacingRight=5;fontSize=14;strokeColor=default;verticalAlign=middle;fontFamily=Helvetica;fontColor=default;" parent="1" vertex="1">
          <mxGeometry x="3960" y="-640" width="40" height="40" as="geometry">
            <mxRectangle width="180" height="30" as="alternateBounds" />
          </mxGeometry>
        </mxCell>
        <mxCell id="uECFME4bFshtPmdQIp78-136" value="" style="shape=partialRectangle;connectable=0;fillColor=default;top=1;left=1;bottom=1;right=1;align=center;spacingLeft=5;fontStyle=0;overflow=hidden;html=1;whiteSpace=wrap;spacingRight=5;fontSize=14;strokeColor=default;verticalAlign=middle;fontFamily=Helvetica;fontColor=default;" parent="1" vertex="1">
          <mxGeometry x="4000" y="-640" width="40" height="40" as="geometry">
            <mxRectangle width="180" height="30" as="alternateBounds" />
          </mxGeometry>
        </mxCell>
        <mxCell id="uECFME4bFshtPmdQIp78-137" value="" style="shape=partialRectangle;connectable=0;fillColor=default;top=1;left=1;bottom=1;right=1;align=center;spacingLeft=5;fontStyle=0;overflow=hidden;html=1;whiteSpace=wrap;spacingRight=5;fontSize=14;strokeColor=default;verticalAlign=middle;fontFamily=Helvetica;fontColor=default;" parent="1" vertex="1">
          <mxGeometry x="4040" y="-640" width="40" height="40" as="geometry">
            <mxRectangle width="180" height="30" as="alternateBounds" />
          </mxGeometry>
        </mxCell>
        <mxCell id="uECFME4bFshtPmdQIp78-138" value="" style="shape=partialRectangle;connectable=0;fillColor=default;top=1;left=1;bottom=1;right=1;align=center;spacingLeft=5;fontStyle=0;overflow=hidden;html=1;whiteSpace=wrap;spacingRight=5;fontSize=14;strokeColor=default;verticalAlign=middle;fontFamily=Helvetica;fontColor=default;" parent="1" vertex="1">
          <mxGeometry x="4080" y="-640" width="40" height="40" as="geometry">
            <mxRectangle width="180" height="30" as="alternateBounds" />
          </mxGeometry>
        </mxCell>
        <mxCell id="uECFME4bFshtPmdQIp78-139" value="" style="shape=partialRectangle;connectable=0;fillColor=default;top=1;left=1;bottom=1;right=1;align=center;spacingLeft=5;fontStyle=0;overflow=hidden;html=1;whiteSpace=wrap;spacingRight=5;fontSize=14;strokeColor=default;verticalAlign=middle;fontFamily=Helvetica;fontColor=default;" parent="1" vertex="1">
          <mxGeometry x="4120" y="-640" width="40" height="40" as="geometry">
            <mxRectangle width="180" height="30" as="alternateBounds" />
          </mxGeometry>
        </mxCell>
        <mxCell id="uECFME4bFshtPmdQIp78-140" value="" style="shape=partialRectangle;connectable=0;fillColor=default;top=1;left=1;bottom=1;right=1;align=center;spacingLeft=5;fontStyle=0;overflow=hidden;html=1;whiteSpace=wrap;spacingRight=5;fontSize=14;strokeColor=default;verticalAlign=middle;fontFamily=Helvetica;fontColor=default;" parent="1" vertex="1">
          <mxGeometry x="4160" y="-640" width="40" height="40" as="geometry">
            <mxRectangle width="180" height="30" as="alternateBounds" />
          </mxGeometry>
        </mxCell>
        <mxCell id="uECFME4bFshtPmdQIp78-152" value="#" style="shape=partialRectangle;connectable=0;fillColor=#f5f5f5;top=1;left=1;bottom=1;right=1;align=center;spacingLeft=5;fontStyle=0;overflow=hidden;html=1;whiteSpace=wrap;spacingRight=5;fontSize=14;verticalAlign=middle;fontFamily=Helvetica;strokeColor=#666666;gradientColor=#b3b3b3;" parent="1" vertex="1">
          <mxGeometry x="3760" y="-400" width="40" height="40" as="geometry">
            <mxRectangle width="180" height="30" as="alternateBounds" />
          </mxGeometry>
        </mxCell>
        <mxCell id="uECFME4bFshtPmdQIp78-153" value="21" style="shape=partialRectangle;connectable=0;fillColor=default;top=1;left=1;bottom=1;right=1;align=center;spacingLeft=5;fontStyle=0;overflow=hidden;html=1;whiteSpace=wrap;spacingRight=5;fontSize=14;strokeColor=default;verticalAlign=middle;fontFamily=Helvetica;fontColor=default;" parent="1" vertex="1">
          <mxGeometry x="3800" y="-400" width="40" height="40" as="geometry">
            <mxRectangle width="180" height="30" as="alternateBounds" />
          </mxGeometry>
        </mxCell>
        <mxCell id="uECFME4bFshtPmdQIp78-154" value="#" style="shape=partialRectangle;connectable=0;fillColor=#f5f5f5;top=1;left=1;bottom=1;right=1;align=center;spacingLeft=5;fontStyle=0;overflow=hidden;html=1;whiteSpace=wrap;spacingRight=5;fontSize=14;strokeColor=#666666;verticalAlign=middle;fontFamily=Helvetica;fontColor=default;gradientColor=#b3b3b3;" parent="1" vertex="1">
          <mxGeometry x="3840" y="-400" width="40" height="40" as="geometry">
            <mxRectangle width="180" height="30" as="alternateBounds" />
          </mxGeometry>
        </mxCell>
        <mxCell id="uECFME4bFshtPmdQIp78-155" value="30" style="shape=partialRectangle;connectable=0;fillColor=default;top=1;left=1;bottom=1;right=1;align=center;spacingLeft=5;fontStyle=0;overflow=hidden;html=1;whiteSpace=wrap;spacingRight=5;fontSize=14;strokeColor=default;verticalAlign=middle;fontFamily=Helvetica;fontColor=default;" parent="1" vertex="1">
          <mxGeometry x="3880" y="-400" width="40" height="40" as="geometry">
            <mxRectangle width="180" height="30" as="alternateBounds" />
          </mxGeometry>
        </mxCell>
        <mxCell id="uECFME4bFshtPmdQIp78-156" value="#" style="shape=partialRectangle;connectable=0;fillColor=#f5f5f5;top=1;left=1;bottom=1;right=1;align=center;spacingLeft=5;fontStyle=0;overflow=hidden;html=1;whiteSpace=wrap;spacingRight=5;fontSize=14;strokeColor=#666666;verticalAlign=middle;fontFamily=Helvetica;fontColor=default;gradientColor=#b3b3b3;" parent="1" vertex="1">
          <mxGeometry x="3920" y="-400" width="40" height="40" as="geometry">
            <mxRectangle width="180" height="30" as="alternateBounds" />
          </mxGeometry>
        </mxCell>
        <mxCell id="uECFME4bFshtPmdQIp78-157" value="42" style="shape=partialRectangle;connectable=0;fillColor=default;top=1;left=1;bottom=1;right=1;align=center;spacingLeft=5;fontStyle=0;overflow=hidden;html=1;whiteSpace=wrap;spacingRight=5;fontSize=14;strokeColor=default;verticalAlign=middle;fontFamily=Helvetica;fontColor=default;" parent="1" vertex="1">
          <mxGeometry x="3960" y="-400" width="40" height="40" as="geometry">
            <mxRectangle width="180" height="30" as="alternateBounds" />
          </mxGeometry>
        </mxCell>
        <mxCell id="uECFME4bFshtPmdQIp78-159" value="80" style="shape=partialRectangle;connectable=0;fillColor=default;top=1;left=1;bottom=1;right=1;align=center;spacingLeft=5;fontStyle=0;overflow=hidden;html=1;whiteSpace=wrap;spacingRight=5;fontSize=14;strokeColor=default;verticalAlign=middle;fontFamily=Helvetica;fontColor=default;" parent="1" vertex="1">
          <mxGeometry x="4040" y="-400" width="40" height="40" as="geometry">
            <mxRectangle width="180" height="30" as="alternateBounds" />
          </mxGeometry>
        </mxCell>
        <mxCell id="uECFME4bFshtPmdQIp78-161" value="92" style="shape=partialRectangle;connectable=0;fillColor=default;top=1;left=1;bottom=1;right=1;align=center;spacingLeft=5;fontStyle=0;overflow=hidden;html=1;whiteSpace=wrap;spacingRight=5;fontSize=14;strokeColor=default;verticalAlign=middle;fontFamily=Helvetica;fontColor=default;" parent="1" vertex="1">
          <mxGeometry x="4120" y="-400" width="40" height="40" as="geometry">
            <mxRectangle width="180" height="30" as="alternateBounds" />
          </mxGeometry>
        </mxCell>
        <mxCell id="uECFME4bFshtPmdQIp78-163" value="#" style="shape=partialRectangle;connectable=0;fillColor=#f5f5f5;top=1;left=1;bottom=1;right=1;align=center;spacingLeft=5;fontStyle=0;overflow=hidden;html=1;whiteSpace=wrap;spacingRight=5;fontSize=14;strokeColor=#666666;verticalAlign=middle;fontFamily=Helvetica;fontColor=default;gradientColor=#b3b3b3;" parent="1" vertex="1">
          <mxGeometry x="4000" y="-400" width="40" height="40" as="geometry">
            <mxRectangle width="180" height="30" as="alternateBounds" />
          </mxGeometry>
        </mxCell>
        <mxCell id="uECFME4bFshtPmdQIp78-164" value="#" style="shape=partialRectangle;connectable=0;fillColor=#f5f5f5;top=1;left=1;bottom=1;right=1;align=center;spacingLeft=5;fontStyle=0;overflow=hidden;html=1;whiteSpace=wrap;spacingRight=5;fontSize=14;strokeColor=#666666;verticalAlign=middle;fontFamily=Helvetica;fontColor=default;gradientColor=#b3b3b3;" parent="1" vertex="1">
          <mxGeometry x="4080" y="-400" width="40" height="40" as="geometry">
            <mxRectangle width="180" height="30" as="alternateBounds" />
          </mxGeometry>
        </mxCell>
        <mxCell id="uECFME4bFshtPmdQIp78-165" value="#" style="shape=partialRectangle;connectable=0;fillColor=#f5f5f5;top=1;left=1;bottom=1;right=1;align=center;spacingLeft=5;fontStyle=0;overflow=hidden;html=1;whiteSpace=wrap;spacingRight=5;fontSize=14;strokeColor=#666666;verticalAlign=middle;fontFamily=Helvetica;fontColor=default;gradientColor=#b3b3b3;" parent="1" vertex="1">
          <mxGeometry x="4160" y="-400" width="40" height="40" as="geometry">
            <mxRectangle width="180" height="30" as="alternateBounds" />
          </mxGeometry>
        </mxCell>
        <mxCell id="uECFME4bFshtPmdQIp78-166" value="10" style="shape=partialRectangle;connectable=0;fillColor=default;top=1;left=1;bottom=1;right=1;align=center;spacingLeft=5;fontStyle=0;overflow=hidden;html=1;whiteSpace=wrap;spacingRight=5;fontSize=14;strokeColor=default;verticalAlign=middle;fontFamily=Helvetica;fontColor=default;" parent="1" vertex="1">
          <mxGeometry x="3280" y="-280" width="40" height="40" as="geometry">
            <mxRectangle width="180" height="30" as="alternateBounds" />
          </mxGeometry>
        </mxCell>
        <mxCell id="uECFME4bFshtPmdQIp78-167" value="20" style="shape=partialRectangle;connectable=0;fillColor=default;top=1;left=1;bottom=1;right=1;align=center;spacingLeft=5;fontStyle=0;overflow=hidden;html=1;whiteSpace=wrap;spacingRight=5;fontSize=14;strokeColor=default;verticalAlign=middle;fontFamily=Helvetica;fontColor=default;" parent="1" vertex="1">
          <mxGeometry x="3320" y="-280" width="40" height="40" as="geometry">
            <mxRectangle width="180" height="30" as="alternateBounds" />
          </mxGeometry>
        </mxCell>
        <mxCell id="uECFME4bFshtPmdQIp78-168" value="" style="shape=partialRectangle;connectable=0;fillColor=default;top=1;left=1;bottom=1;right=1;align=center;spacingLeft=5;fontStyle=0;overflow=hidden;html=1;whiteSpace=wrap;spacingRight=5;fontSize=14;strokeColor=default;verticalAlign=middle;fontFamily=Helvetica;fontColor=default;" parent="1" vertex="1">
          <mxGeometry x="3360" y="-280" width="40" height="40" as="geometry">
            <mxRectangle width="180" height="30" as="alternateBounds" />
          </mxGeometry>
        </mxCell>
        <mxCell id="uECFME4bFshtPmdQIp78-169" value="" style="shape=partialRectangle;connectable=0;fillColor=default;top=1;left=1;bottom=1;right=1;align=center;spacingLeft=5;fontStyle=0;overflow=hidden;html=1;whiteSpace=wrap;spacingRight=5;fontSize=14;strokeColor=default;verticalAlign=middle;fontFamily=Helvetica;fontColor=default;" parent="1" vertex="1">
          <mxGeometry x="3400" y="-280" width="40" height="40" as="geometry">
            <mxRectangle width="180" height="30" as="alternateBounds" />
          </mxGeometry>
        </mxCell>
        <mxCell id="uECFME4bFshtPmdQIp78-170" value="" style="shape=partialRectangle;connectable=0;fillColor=default;top=1;left=1;bottom=1;right=1;align=center;spacingLeft=5;fontStyle=0;overflow=hidden;html=1;whiteSpace=wrap;spacingRight=5;fontSize=14;strokeColor=default;verticalAlign=middle;fontFamily=Helvetica;fontColor=default;" parent="1" vertex="1">
          <mxGeometry x="3440" y="-280" width="40" height="40" as="geometry">
            <mxRectangle width="180" height="30" as="alternateBounds" />
          </mxGeometry>
        </mxCell>
        <mxCell id="uECFME4bFshtPmdQIp78-171" value="22" style="shape=partialRectangle;connectable=0;fillColor=default;top=1;left=1;bottom=1;right=1;align=center;spacingLeft=5;fontStyle=0;overflow=hidden;html=1;whiteSpace=wrap;spacingRight=5;fontSize=14;strokeColor=default;verticalAlign=middle;fontFamily=Helvetica;fontColor=default;" parent="1" vertex="1">
          <mxGeometry x="3520" y="-280" width="40" height="40" as="geometry">
            <mxRectangle width="180" height="30" as="alternateBounds" />
          </mxGeometry>
        </mxCell>
        <mxCell id="uECFME4bFshtPmdQIp78-172" value="23" style="shape=partialRectangle;connectable=0;fillColor=default;top=1;left=1;bottom=1;right=1;align=center;spacingLeft=5;fontStyle=0;overflow=hidden;html=1;whiteSpace=wrap;spacingRight=5;fontSize=14;strokeColor=default;verticalAlign=middle;fontFamily=Helvetica;fontColor=default;" parent="1" vertex="1">
          <mxGeometry x="3560" y="-280" width="40" height="40" as="geometry">
            <mxRectangle width="180" height="30" as="alternateBounds" />
          </mxGeometry>
        </mxCell>
        <mxCell id="uECFME4bFshtPmdQIp78-173" value="24" style="shape=partialRectangle;connectable=0;fillColor=default;top=1;left=1;bottom=1;right=1;align=center;spacingLeft=5;fontStyle=0;overflow=hidden;html=1;whiteSpace=wrap;spacingRight=5;fontSize=14;strokeColor=default;verticalAlign=middle;fontFamily=Helvetica;fontColor=default;" parent="1" vertex="1">
          <mxGeometry x="3600" y="-280" width="40" height="40" as="geometry">
            <mxRectangle width="180" height="30" as="alternateBounds" />
          </mxGeometry>
        </mxCell>
        <mxCell id="uECFME4bFshtPmdQIp78-174" value="" style="shape=partialRectangle;connectable=0;fillColor=default;top=1;left=1;bottom=1;right=1;align=center;spacingLeft=5;fontStyle=0;overflow=hidden;html=1;whiteSpace=wrap;spacingRight=5;fontSize=14;strokeColor=default;verticalAlign=middle;fontFamily=Helvetica;fontColor=default;" parent="1" vertex="1">
          <mxGeometry x="3640" y="-280" width="40" height="40" as="geometry">
            <mxRectangle width="180" height="30" as="alternateBounds" />
          </mxGeometry>
        </mxCell>
        <mxCell id="uECFME4bFshtPmdQIp78-175" value="" style="shape=partialRectangle;connectable=0;fillColor=default;top=1;left=1;bottom=1;right=1;align=center;spacingLeft=5;fontStyle=0;overflow=hidden;html=1;whiteSpace=wrap;spacingRight=5;fontSize=14;strokeColor=default;verticalAlign=middle;fontFamily=Helvetica;fontColor=default;" parent="1" vertex="1">
          <mxGeometry x="3680" y="-280" width="40" height="40" as="geometry">
            <mxRectangle width="180" height="30" as="alternateBounds" />
          </mxGeometry>
        </mxCell>
        <mxCell id="uECFME4bFshtPmdQIp78-176" value="90" style="shape=partialRectangle;connectable=0;fillColor=default;top=1;left=1;bottom=1;right=1;align=center;spacingLeft=5;fontStyle=0;overflow=hidden;html=1;whiteSpace=wrap;spacingRight=5;fontSize=14;strokeColor=default;verticalAlign=middle;fontFamily=Helvetica;fontColor=default;" parent="1" vertex="1">
          <mxGeometry x="4240" y="-280" width="40" height="40" as="geometry">
            <mxRectangle width="180" height="30" as="alternateBounds" />
          </mxGeometry>
        </mxCell>
        <mxCell id="uECFME4bFshtPmdQIp78-177" value="91" style="shape=partialRectangle;connectable=0;fillColor=default;top=1;left=1;bottom=1;right=1;align=center;spacingLeft=5;fontStyle=0;overflow=hidden;html=1;whiteSpace=wrap;spacingRight=5;fontSize=14;strokeColor=default;verticalAlign=middle;fontFamily=Helvetica;fontColor=default;" parent="1" vertex="1">
          <mxGeometry x="4280" y="-280" width="40" height="40" as="geometry">
            <mxRectangle width="180" height="30" as="alternateBounds" />
          </mxGeometry>
        </mxCell>
        <mxCell id="uECFME4bFshtPmdQIp78-178" value="" style="shape=partialRectangle;connectable=0;fillColor=default;top=1;left=1;bottom=1;right=1;align=center;spacingLeft=5;fontStyle=0;overflow=hidden;html=1;whiteSpace=wrap;spacingRight=5;fontSize=14;strokeColor=default;verticalAlign=middle;fontFamily=Helvetica;fontColor=default;" parent="1" vertex="1">
          <mxGeometry x="4320" y="-280" width="40" height="40" as="geometry">
            <mxRectangle width="180" height="30" as="alternateBounds" />
          </mxGeometry>
        </mxCell>
        <mxCell id="uECFME4bFshtPmdQIp78-179" value="" style="shape=partialRectangle;connectable=0;fillColor=default;top=1;left=1;bottom=1;right=1;align=center;spacingLeft=5;fontStyle=0;overflow=hidden;html=1;whiteSpace=wrap;spacingRight=5;fontSize=14;strokeColor=default;verticalAlign=middle;fontFamily=Helvetica;fontColor=default;" parent="1" vertex="1">
          <mxGeometry x="4360" y="-280" width="40" height="40" as="geometry">
            <mxRectangle width="180" height="30" as="alternateBounds" />
          </mxGeometry>
        </mxCell>
        <mxCell id="uECFME4bFshtPmdQIp78-180" value="" style="shape=partialRectangle;connectable=0;fillColor=default;top=1;left=1;bottom=1;right=1;align=center;spacingLeft=5;fontStyle=0;overflow=hidden;html=1;whiteSpace=wrap;spacingRight=5;fontSize=14;strokeColor=default;verticalAlign=middle;fontFamily=Helvetica;fontColor=default;" parent="1" vertex="1">
          <mxGeometry x="4400" y="-280" width="40" height="40" as="geometry">
            <mxRectangle width="180" height="30" as="alternateBounds" />
          </mxGeometry>
        </mxCell>
        <mxCell id="uECFME4bFshtPmdQIp78-191" value="40" style="shape=partialRectangle;connectable=0;fillColor=default;top=1;left=1;bottom=1;right=1;align=center;spacingLeft=5;fontStyle=0;overflow=hidden;html=1;whiteSpace=wrap;spacingRight=5;fontSize=14;strokeColor=default;verticalAlign=middle;fontFamily=Helvetica;fontColor=default;" parent="1" vertex="1">
          <mxGeometry x="3760" y="-280" width="40" height="40" as="geometry">
            <mxRectangle width="180" height="30" as="alternateBounds" />
          </mxGeometry>
        </mxCell>
        <mxCell id="uECFME4bFshtPmdQIp78-192" value="41" style="shape=partialRectangle;connectable=0;fillColor=default;top=1;left=1;bottom=1;right=1;align=center;spacingLeft=5;fontStyle=0;overflow=hidden;html=1;whiteSpace=wrap;spacingRight=5;fontSize=14;strokeColor=default;verticalAlign=middle;fontFamily=Helvetica;fontColor=default;" parent="1" vertex="1">
          <mxGeometry x="3800" y="-280" width="40" height="40" as="geometry">
            <mxRectangle width="180" height="30" as="alternateBounds" />
          </mxGeometry>
        </mxCell>
        <mxCell id="uECFME4bFshtPmdQIp78-193" value="" style="shape=partialRectangle;connectable=0;fillColor=default;top=1;left=1;bottom=1;right=1;align=center;spacingLeft=5;fontStyle=0;overflow=hidden;html=1;whiteSpace=wrap;spacingRight=5;fontSize=14;strokeColor=default;verticalAlign=middle;fontFamily=Helvetica;fontColor=default;" parent="1" vertex="1">
          <mxGeometry x="3840" y="-280" width="40" height="40" as="geometry">
            <mxRectangle width="180" height="30" as="alternateBounds" />
          </mxGeometry>
        </mxCell>
        <mxCell id="uECFME4bFshtPmdQIp78-194" value="" style="shape=partialRectangle;connectable=0;fillColor=default;top=1;left=1;bottom=1;right=1;align=center;spacingLeft=5;fontStyle=0;overflow=hidden;html=1;whiteSpace=wrap;spacingRight=5;fontSize=14;strokeColor=default;verticalAlign=middle;fontFamily=Helvetica;fontColor=default;" parent="1" vertex="1">
          <mxGeometry x="3880" y="-280" width="40" height="40" as="geometry">
            <mxRectangle width="180" height="30" as="alternateBounds" />
          </mxGeometry>
        </mxCell>
        <mxCell id="uECFME4bFshtPmdQIp78-195" value="" style="shape=partialRectangle;connectable=0;fillColor=default;top=1;left=1;bottom=1;right=1;align=center;spacingLeft=5;fontStyle=0;overflow=hidden;html=1;whiteSpace=wrap;spacingRight=5;fontSize=14;strokeColor=default;verticalAlign=middle;fontFamily=Helvetica;fontColor=default;" parent="1" vertex="1">
          <mxGeometry x="3920" y="-280" width="40" height="40" as="geometry">
            <mxRectangle width="180" height="30" as="alternateBounds" />
          </mxGeometry>
        </mxCell>
        <mxCell id="uECFME4bFshtPmdQIp78-196" value="43" style="shape=partialRectangle;connectable=0;fillColor=default;top=1;left=1;bottom=1;right=1;align=center;spacingLeft=5;fontStyle=0;overflow=hidden;html=1;whiteSpace=wrap;spacingRight=5;fontSize=14;strokeColor=default;verticalAlign=middle;fontFamily=Helvetica;fontColor=default;" parent="1" vertex="1">
          <mxGeometry x="4000" y="-280" width="40" height="40" as="geometry">
            <mxRectangle width="180" height="30" as="alternateBounds" />
          </mxGeometry>
        </mxCell>
        <mxCell id="uECFME4bFshtPmdQIp78-197" value="44" style="shape=partialRectangle;connectable=0;fillColor=default;top=1;left=1;bottom=1;right=1;align=center;spacingLeft=5;fontStyle=0;overflow=hidden;html=1;whiteSpace=wrap;spacingRight=5;fontSize=14;strokeColor=default;verticalAlign=middle;fontFamily=Helvetica;fontColor=default;" parent="1" vertex="1">
          <mxGeometry x="4040" y="-280" width="40" height="40" as="geometry">
            <mxRectangle width="180" height="30" as="alternateBounds" />
          </mxGeometry>
        </mxCell>
        <mxCell id="uECFME4bFshtPmdQIp78-198" value="50" style="shape=partialRectangle;connectable=0;fillColor=default;top=1;left=1;bottom=1;right=1;align=center;spacingLeft=5;fontStyle=0;overflow=hidden;html=1;whiteSpace=wrap;spacingRight=5;fontSize=14;strokeColor=default;verticalAlign=middle;fontFamily=Helvetica;fontColor=default;" parent="1" vertex="1">
          <mxGeometry x="4080" y="-280" width="40" height="40" as="geometry">
            <mxRectangle width="180" height="30" as="alternateBounds" />
          </mxGeometry>
        </mxCell>
        <mxCell id="uECFME4bFshtPmdQIp78-199" value="" style="shape=partialRectangle;connectable=0;fillColor=default;top=1;left=1;bottom=1;right=1;align=center;spacingLeft=5;fontStyle=0;overflow=hidden;html=1;whiteSpace=wrap;spacingRight=5;fontSize=14;strokeColor=default;verticalAlign=middle;fontFamily=Helvetica;fontColor=default;" parent="1" vertex="1">
          <mxGeometry x="4120" y="-280" width="40" height="40" as="geometry">
            <mxRectangle width="180" height="30" as="alternateBounds" />
          </mxGeometry>
        </mxCell>
        <mxCell id="uECFME4bFshtPmdQIp78-200" value="" style="shape=partialRectangle;connectable=0;fillColor=default;top=1;left=1;bottom=1;right=1;align=center;spacingLeft=5;fontStyle=0;overflow=hidden;html=1;whiteSpace=wrap;spacingRight=5;fontSize=14;strokeColor=default;verticalAlign=middle;fontFamily=Helvetica;fontColor=default;" parent="1" vertex="1">
          <mxGeometry x="4160" y="-280" width="40" height="40" as="geometry">
            <mxRectangle width="180" height="30" as="alternateBounds" />
          </mxGeometry>
        </mxCell>
        <mxCell id="uECFME4bFshtPmdQIp78-201" value="93" style="shape=partialRectangle;connectable=0;fillColor=default;top=1;left=1;bottom=1;right=1;align=center;spacingLeft=5;fontStyle=0;overflow=hidden;html=1;whiteSpace=wrap;spacingRight=5;fontSize=14;strokeColor=default;verticalAlign=middle;fontFamily=Helvetica;fontColor=default;" parent="1" vertex="1">
          <mxGeometry x="4480" y="-280" width="40" height="40" as="geometry">
            <mxRectangle width="180" height="30" as="alternateBounds" />
          </mxGeometry>
        </mxCell>
        <mxCell id="uECFME4bFshtPmdQIp78-202" value="100" style="shape=partialRectangle;connectable=0;fillColor=default;top=1;left=1;bottom=1;right=1;align=center;spacingLeft=5;fontStyle=0;overflow=hidden;html=1;whiteSpace=wrap;spacingRight=5;fontSize=14;strokeColor=default;verticalAlign=middle;fontFamily=Helvetica;fontColor=default;" parent="1" vertex="1">
          <mxGeometry x="4520" y="-280" width="40" height="40" as="geometry">
            <mxRectangle width="180" height="30" as="alternateBounds" />
          </mxGeometry>
        </mxCell>
        <mxCell id="uECFME4bFshtPmdQIp78-203" value="110" style="shape=partialRectangle;connectable=0;fillColor=default;top=1;left=1;bottom=1;right=1;align=center;spacingLeft=5;fontStyle=0;overflow=hidden;html=1;whiteSpace=wrap;spacingRight=5;fontSize=14;strokeColor=default;verticalAlign=middle;fontFamily=Helvetica;fontColor=default;" parent="1" vertex="1">
          <mxGeometry x="4560" y="-280" width="40" height="40" as="geometry">
            <mxRectangle width="180" height="30" as="alternateBounds" />
          </mxGeometry>
        </mxCell>
        <mxCell id="uECFME4bFshtPmdQIp78-204" value="" style="shape=partialRectangle;connectable=0;fillColor=default;top=1;left=1;bottom=1;right=1;align=center;spacingLeft=5;fontStyle=0;overflow=hidden;html=1;whiteSpace=wrap;spacingRight=5;fontSize=14;strokeColor=default;verticalAlign=middle;fontFamily=Helvetica;fontColor=default;" parent="1" vertex="1">
          <mxGeometry x="4600" y="-280" width="40" height="40" as="geometry">
            <mxRectangle width="180" height="30" as="alternateBounds" />
          </mxGeometry>
        </mxCell>
        <mxCell id="uECFME4bFshtPmdQIp78-205" value="" style="shape=partialRectangle;connectable=0;fillColor=default;top=1;left=1;bottom=1;right=1;align=center;spacingLeft=5;fontStyle=0;overflow=hidden;html=1;whiteSpace=wrap;spacingRight=5;fontSize=14;strokeColor=default;verticalAlign=middle;fontFamily=Helvetica;fontColor=default;" parent="1" vertex="1">
          <mxGeometry x="4640" y="-280" width="40" height="40" as="geometry">
            <mxRectangle width="180" height="30" as="alternateBounds" />
          </mxGeometry>
        </mxCell>
        <mxCell id="uECFME4bFshtPmdQIp78-206" value="" style="endArrow=none;endFill=1;html=1;rounded=0;startFill=0;" parent="1" edge="1">
          <mxGeometry width="160" relative="1" as="geometry">
            <mxPoint x="3780" y="-360" as="sourcePoint" />
            <mxPoint x="3300" y="-280" as="targetPoint" />
          </mxGeometry>
        </mxCell>
        <mxCell id="uECFME4bFshtPmdQIp78-207" value="" style="endArrow=none;endFill=1;html=1;rounded=0;startFill=0;" parent="1" edge="1">
          <mxGeometry width="160" relative="1" as="geometry">
            <mxPoint x="3860" y="-360" as="sourcePoint" />
            <mxPoint x="3540" y="-280" as="targetPoint" />
          </mxGeometry>
        </mxCell>
        <mxCell id="uECFME4bFshtPmdQIp78-208" value="" style="endArrow=none;endFill=1;html=1;rounded=0;startFill=0;" parent="1" edge="1">
          <mxGeometry width="160" relative="1" as="geometry">
            <mxPoint x="3940" y="-360" as="sourcePoint" />
            <mxPoint x="3780" y="-280" as="targetPoint" />
          </mxGeometry>
        </mxCell>
        <mxCell id="uECFME4bFshtPmdQIp78-209" value="" style="endArrow=none;endFill=1;html=1;rounded=0;startFill=0;" parent="1" edge="1">
          <mxGeometry width="160" relative="1" as="geometry">
            <mxPoint x="4020" y="-360" as="sourcePoint" />
            <mxPoint x="4019.8" y="-280" as="targetPoint" />
          </mxGeometry>
        </mxCell>
        <mxCell id="uECFME4bFshtPmdQIp78-210" value="" style="endArrow=none;endFill=1;html=1;rounded=0;startFill=0;" parent="1" edge="1">
          <mxGeometry width="160" relative="1" as="geometry">
            <mxPoint x="4100" y="-360" as="sourcePoint" />
            <mxPoint x="4260" y="-280" as="targetPoint" />
          </mxGeometry>
        </mxCell>
        <mxCell id="uECFME4bFshtPmdQIp78-211" value="" style="endArrow=none;endFill=1;html=1;rounded=0;startFill=0;" parent="1" edge="1">
          <mxGeometry width="160" relative="1" as="geometry">
            <mxPoint x="4180" y="-360" as="sourcePoint" />
            <mxPoint x="4500" y="-280" as="targetPoint" />
          </mxGeometry>
        </mxCell>
        <mxCell id="uECFME4bFshtPmdQIp78-212" value="Добавляем 51, 52, 53" style="text;html=1;align=center;verticalAlign=middle;resizable=0;points=[];autosize=1;strokeColor=none;fillColor=none;" parent="1" vertex="1">
          <mxGeometry x="3910" y="-200" width="140" height="30" as="geometry" />
        </mxCell>
        <mxCell id="uECFME4bFshtPmdQIp78-218" value="50" style="shape=partialRectangle;connectable=0;fillColor=default;top=1;left=1;bottom=1;right=1;align=center;spacingLeft=5;fontStyle=0;overflow=hidden;html=1;whiteSpace=wrap;spacingRight=5;fontSize=14;strokeColor=default;verticalAlign=middle;fontFamily=Helvetica;fontColor=default;" parent="1" vertex="1">
          <mxGeometry x="4040" y="-40" width="40" height="40" as="geometry">
            <mxRectangle width="180" height="30" as="alternateBounds" />
          </mxGeometry>
        </mxCell>
        <mxCell id="uECFME4bFshtPmdQIp78-219" value="80" style="shape=partialRectangle;connectable=0;fillColor=default;top=1;left=1;bottom=1;right=1;align=center;spacingLeft=5;fontStyle=0;overflow=hidden;html=1;whiteSpace=wrap;spacingRight=5;fontSize=14;strokeColor=default;verticalAlign=middle;fontFamily=Helvetica;fontColor=default;" parent="1" vertex="1">
          <mxGeometry x="4120" y="-40" width="40" height="40" as="geometry">
            <mxRectangle width="180" height="30" as="alternateBounds" />
          </mxGeometry>
        </mxCell>
        <mxCell id="uECFME4bFshtPmdQIp78-220" value="92" style="shape=partialRectangle;connectable=0;fillColor=default;top=1;left=1;bottom=1;right=1;align=center;spacingLeft=5;fontStyle=0;overflow=hidden;html=1;whiteSpace=wrap;spacingRight=5;fontSize=14;strokeColor=default;verticalAlign=middle;fontFamily=Helvetica;fontColor=default;" parent="1" vertex="1">
          <mxGeometry x="4200" y="-40" width="40" height="40" as="geometry">
            <mxRectangle width="180" height="30" as="alternateBounds" />
          </mxGeometry>
        </mxCell>
        <mxCell id="uECFME4bFshtPmdQIp78-221" value="#" style="shape=partialRectangle;connectable=0;fillColor=#f5f5f5;top=1;left=1;bottom=1;right=1;align=center;spacingLeft=5;fontStyle=0;overflow=hidden;html=1;whiteSpace=wrap;spacingRight=5;fontSize=14;strokeColor=#666666;verticalAlign=middle;fontFamily=Helvetica;fontColor=default;gradientColor=#b3b3b3;" parent="1" vertex="1">
          <mxGeometry x="4080" y="-40" width="40" height="40" as="geometry">
            <mxRectangle width="180" height="30" as="alternateBounds" />
          </mxGeometry>
        </mxCell>
        <mxCell id="uECFME4bFshtPmdQIp78-222" value="#" style="shape=partialRectangle;connectable=0;fillColor=#f5f5f5;top=1;left=1;bottom=1;right=1;align=center;spacingLeft=5;fontStyle=0;overflow=hidden;html=1;whiteSpace=wrap;spacingRight=5;fontSize=14;strokeColor=#666666;verticalAlign=middle;fontFamily=Helvetica;fontColor=default;gradientColor=#b3b3b3;" parent="1" vertex="1">
          <mxGeometry x="4160" y="-40" width="40" height="40" as="geometry">
            <mxRectangle width="180" height="30" as="alternateBounds" />
          </mxGeometry>
        </mxCell>
        <mxCell id="uECFME4bFshtPmdQIp78-223" value="#" style="shape=partialRectangle;connectable=0;fillColor=#f5f5f5;top=1;left=1;bottom=1;right=1;align=center;spacingLeft=5;fontStyle=0;overflow=hidden;html=1;whiteSpace=wrap;spacingRight=5;fontSize=14;strokeColor=#666666;verticalAlign=middle;fontFamily=Helvetica;fontColor=default;gradientColor=#b3b3b3;" parent="1" vertex="1">
          <mxGeometry x="4240" y="-40" width="40" height="40" as="geometry">
            <mxRectangle width="180" height="30" as="alternateBounds" />
          </mxGeometry>
        </mxCell>
        <mxCell id="uECFME4bFshtPmdQIp78-224" value="10" style="shape=partialRectangle;connectable=0;fillColor=default;top=1;left=1;bottom=1;right=1;align=center;spacingLeft=5;fontStyle=0;overflow=hidden;html=1;whiteSpace=wrap;spacingRight=5;fontSize=14;strokeColor=default;verticalAlign=middle;fontFamily=Helvetica;fontColor=default;" parent="1" vertex="1">
          <mxGeometry x="3160" y="80" width="40" height="40" as="geometry">
            <mxRectangle width="180" height="30" as="alternateBounds" />
          </mxGeometry>
        </mxCell>
        <mxCell id="uECFME4bFshtPmdQIp78-225" value="20" style="shape=partialRectangle;connectable=0;fillColor=default;top=1;left=1;bottom=1;right=1;align=center;spacingLeft=5;fontStyle=0;overflow=hidden;html=1;whiteSpace=wrap;spacingRight=5;fontSize=14;strokeColor=default;verticalAlign=middle;fontFamily=Helvetica;fontColor=default;" parent="1" vertex="1">
          <mxGeometry x="3200" y="80" width="40" height="40" as="geometry">
            <mxRectangle width="180" height="30" as="alternateBounds" />
          </mxGeometry>
        </mxCell>
        <mxCell id="uECFME4bFshtPmdQIp78-226" value="" style="shape=partialRectangle;connectable=0;fillColor=default;top=1;left=1;bottom=1;right=1;align=center;spacingLeft=5;fontStyle=0;overflow=hidden;html=1;whiteSpace=wrap;spacingRight=5;fontSize=14;strokeColor=default;verticalAlign=middle;fontFamily=Helvetica;fontColor=default;" parent="1" vertex="1">
          <mxGeometry x="3240" y="80" width="40" height="40" as="geometry">
            <mxRectangle width="180" height="30" as="alternateBounds" />
          </mxGeometry>
        </mxCell>
        <mxCell id="uECFME4bFshtPmdQIp78-227" value="" style="shape=partialRectangle;connectable=0;fillColor=default;top=1;left=1;bottom=1;right=1;align=center;spacingLeft=5;fontStyle=0;overflow=hidden;html=1;whiteSpace=wrap;spacingRight=5;fontSize=14;strokeColor=default;verticalAlign=middle;fontFamily=Helvetica;fontColor=default;" parent="1" vertex="1">
          <mxGeometry x="3280" y="80" width="40" height="40" as="geometry">
            <mxRectangle width="180" height="30" as="alternateBounds" />
          </mxGeometry>
        </mxCell>
        <mxCell id="uECFME4bFshtPmdQIp78-228" value="" style="shape=partialRectangle;connectable=0;fillColor=default;top=1;left=1;bottom=1;right=1;align=center;spacingLeft=5;fontStyle=0;overflow=hidden;html=1;whiteSpace=wrap;spacingRight=5;fontSize=14;strokeColor=default;verticalAlign=middle;fontFamily=Helvetica;fontColor=default;" parent="1" vertex="1">
          <mxGeometry x="3320" y="80" width="40" height="40" as="geometry">
            <mxRectangle width="180" height="30" as="alternateBounds" />
          </mxGeometry>
        </mxCell>
        <mxCell id="uECFME4bFshtPmdQIp78-229" value="22" style="shape=partialRectangle;connectable=0;fillColor=default;top=1;left=1;bottom=1;right=1;align=center;spacingLeft=5;fontStyle=0;overflow=hidden;html=1;whiteSpace=wrap;spacingRight=5;fontSize=14;strokeColor=default;verticalAlign=middle;fontFamily=Helvetica;fontColor=default;" parent="1" vertex="1">
          <mxGeometry x="3400" y="80" width="40" height="40" as="geometry">
            <mxRectangle width="180" height="30" as="alternateBounds" />
          </mxGeometry>
        </mxCell>
        <mxCell id="uECFME4bFshtPmdQIp78-230" value="23" style="shape=partialRectangle;connectable=0;fillColor=default;top=1;left=1;bottom=1;right=1;align=center;spacingLeft=5;fontStyle=0;overflow=hidden;html=1;whiteSpace=wrap;spacingRight=5;fontSize=14;strokeColor=default;verticalAlign=middle;fontFamily=Helvetica;fontColor=default;" parent="1" vertex="1">
          <mxGeometry x="3440" y="80" width="40" height="40" as="geometry">
            <mxRectangle width="180" height="30" as="alternateBounds" />
          </mxGeometry>
        </mxCell>
        <mxCell id="uECFME4bFshtPmdQIp78-231" value="24" style="shape=partialRectangle;connectable=0;fillColor=default;top=1;left=1;bottom=1;right=1;align=center;spacingLeft=5;fontStyle=0;overflow=hidden;html=1;whiteSpace=wrap;spacingRight=5;fontSize=14;strokeColor=default;verticalAlign=middle;fontFamily=Helvetica;fontColor=default;" parent="1" vertex="1">
          <mxGeometry x="3480" y="80" width="40" height="40" as="geometry">
            <mxRectangle width="180" height="30" as="alternateBounds" />
          </mxGeometry>
        </mxCell>
        <mxCell id="uECFME4bFshtPmdQIp78-232" value="" style="shape=partialRectangle;connectable=0;fillColor=default;top=1;left=1;bottom=1;right=1;align=center;spacingLeft=5;fontStyle=0;overflow=hidden;html=1;whiteSpace=wrap;spacingRight=5;fontSize=14;strokeColor=default;verticalAlign=middle;fontFamily=Helvetica;fontColor=default;" parent="1" vertex="1">
          <mxGeometry x="3520" y="80" width="40" height="40" as="geometry">
            <mxRectangle width="180" height="30" as="alternateBounds" />
          </mxGeometry>
        </mxCell>
        <mxCell id="uECFME4bFshtPmdQIp78-233" value="" style="shape=partialRectangle;connectable=0;fillColor=default;top=1;left=1;bottom=1;right=1;align=center;spacingLeft=5;fontStyle=0;overflow=hidden;html=1;whiteSpace=wrap;spacingRight=5;fontSize=14;strokeColor=default;verticalAlign=middle;fontFamily=Helvetica;fontColor=default;" parent="1" vertex="1">
          <mxGeometry x="3560" y="80" width="40" height="40" as="geometry">
            <mxRectangle width="180" height="30" as="alternateBounds" />
          </mxGeometry>
        </mxCell>
        <mxCell id="uECFME4bFshtPmdQIp78-234" value="90" style="shape=partialRectangle;connectable=0;fillColor=default;top=1;left=1;bottom=1;right=1;align=center;spacingLeft=5;fontStyle=0;overflow=hidden;html=1;whiteSpace=wrap;spacingRight=5;fontSize=14;strokeColor=default;verticalAlign=middle;fontFamily=Helvetica;fontColor=default;" parent="1" vertex="1">
          <mxGeometry x="4360" y="80" width="40" height="40" as="geometry">
            <mxRectangle width="180" height="30" as="alternateBounds" />
          </mxGeometry>
        </mxCell>
        <mxCell id="uECFME4bFshtPmdQIp78-235" value="91" style="shape=partialRectangle;connectable=0;fillColor=default;top=1;left=1;bottom=1;right=1;align=center;spacingLeft=5;fontStyle=0;overflow=hidden;html=1;whiteSpace=wrap;spacingRight=5;fontSize=14;strokeColor=default;verticalAlign=middle;fontFamily=Helvetica;fontColor=default;" parent="1" vertex="1">
          <mxGeometry x="4400" y="80" width="40" height="40" as="geometry">
            <mxRectangle width="180" height="30" as="alternateBounds" />
          </mxGeometry>
        </mxCell>
        <mxCell id="uECFME4bFshtPmdQIp78-236" value="" style="shape=partialRectangle;connectable=0;fillColor=default;top=1;left=1;bottom=1;right=1;align=center;spacingLeft=5;fontStyle=0;overflow=hidden;html=1;whiteSpace=wrap;spacingRight=5;fontSize=14;strokeColor=default;verticalAlign=middle;fontFamily=Helvetica;fontColor=default;" parent="1" vertex="1">
          <mxGeometry x="4440" y="80" width="40" height="40" as="geometry">
            <mxRectangle width="180" height="30" as="alternateBounds" />
          </mxGeometry>
        </mxCell>
        <mxCell id="uECFME4bFshtPmdQIp78-237" value="" style="shape=partialRectangle;connectable=0;fillColor=default;top=1;left=1;bottom=1;right=1;align=center;spacingLeft=5;fontStyle=0;overflow=hidden;html=1;whiteSpace=wrap;spacingRight=5;fontSize=14;strokeColor=default;verticalAlign=middle;fontFamily=Helvetica;fontColor=default;" parent="1" vertex="1">
          <mxGeometry x="4480" y="80" width="40" height="40" as="geometry">
            <mxRectangle width="180" height="30" as="alternateBounds" />
          </mxGeometry>
        </mxCell>
        <mxCell id="uECFME4bFshtPmdQIp78-238" value="" style="shape=partialRectangle;connectable=0;fillColor=default;top=1;left=1;bottom=1;right=1;align=center;spacingLeft=5;fontStyle=0;overflow=hidden;html=1;whiteSpace=wrap;spacingRight=5;fontSize=14;strokeColor=default;verticalAlign=middle;fontFamily=Helvetica;fontColor=default;" parent="1" vertex="1">
          <mxGeometry x="4520" y="80" width="40" height="40" as="geometry">
            <mxRectangle width="180" height="30" as="alternateBounds" />
          </mxGeometry>
        </mxCell>
        <mxCell id="uECFME4bFshtPmdQIp78-239" value="40" style="shape=partialRectangle;connectable=0;fillColor=default;top=1;left=1;bottom=1;right=1;align=center;spacingLeft=5;fontStyle=0;overflow=hidden;html=1;whiteSpace=wrap;spacingRight=5;fontSize=14;strokeColor=default;verticalAlign=middle;fontFamily=Helvetica;fontColor=default;" parent="1" vertex="1">
          <mxGeometry x="3640" y="80" width="40" height="40" as="geometry">
            <mxRectangle width="180" height="30" as="alternateBounds" />
          </mxGeometry>
        </mxCell>
        <mxCell id="uECFME4bFshtPmdQIp78-240" value="41" style="shape=partialRectangle;connectable=0;fillColor=default;top=1;left=1;bottom=1;right=1;align=center;spacingLeft=5;fontStyle=0;overflow=hidden;html=1;whiteSpace=wrap;spacingRight=5;fontSize=14;strokeColor=default;verticalAlign=middle;fontFamily=Helvetica;fontColor=default;" parent="1" vertex="1">
          <mxGeometry x="3680" y="80" width="40" height="40" as="geometry">
            <mxRectangle width="180" height="30" as="alternateBounds" />
          </mxGeometry>
        </mxCell>
        <mxCell id="uECFME4bFshtPmdQIp78-241" value="" style="shape=partialRectangle;connectable=0;fillColor=default;top=1;left=1;bottom=1;right=1;align=center;spacingLeft=5;fontStyle=0;overflow=hidden;html=1;whiteSpace=wrap;spacingRight=5;fontSize=14;strokeColor=default;verticalAlign=middle;fontFamily=Helvetica;fontColor=default;" parent="1" vertex="1">
          <mxGeometry x="3720" y="80" width="40" height="40" as="geometry">
            <mxRectangle width="180" height="30" as="alternateBounds" />
          </mxGeometry>
        </mxCell>
        <mxCell id="uECFME4bFshtPmdQIp78-242" value="" style="shape=partialRectangle;connectable=0;fillColor=default;top=1;left=1;bottom=1;right=1;align=center;spacingLeft=5;fontStyle=0;overflow=hidden;html=1;whiteSpace=wrap;spacingRight=5;fontSize=14;strokeColor=default;verticalAlign=middle;fontFamily=Helvetica;fontColor=default;" parent="1" vertex="1">
          <mxGeometry x="3760" y="80" width="40" height="40" as="geometry">
            <mxRectangle width="180" height="30" as="alternateBounds" />
          </mxGeometry>
        </mxCell>
        <mxCell id="uECFME4bFshtPmdQIp78-243" value="" style="shape=partialRectangle;connectable=0;fillColor=default;top=1;left=1;bottom=1;right=1;align=center;spacingLeft=5;fontStyle=0;overflow=hidden;html=1;whiteSpace=wrap;spacingRight=5;fontSize=14;strokeColor=default;verticalAlign=middle;fontFamily=Helvetica;fontColor=default;" parent="1" vertex="1">
          <mxGeometry x="3800" y="80" width="40" height="40" as="geometry">
            <mxRectangle width="180" height="30" as="alternateBounds" />
          </mxGeometry>
        </mxCell>
        <mxCell id="uECFME4bFshtPmdQIp78-244" value="43" style="shape=partialRectangle;connectable=0;fillColor=default;top=1;left=1;bottom=1;right=1;align=center;spacingLeft=5;fontStyle=0;overflow=hidden;html=1;whiteSpace=wrap;spacingRight=5;fontSize=14;strokeColor=default;verticalAlign=middle;fontFamily=Helvetica;fontColor=default;" parent="1" vertex="1">
          <mxGeometry x="3880" y="80" width="40" height="40" as="geometry">
            <mxRectangle width="180" height="30" as="alternateBounds" />
          </mxGeometry>
        </mxCell>
        <mxCell id="uECFME4bFshtPmdQIp78-245" value="44" style="shape=partialRectangle;connectable=0;fillColor=default;top=1;left=1;bottom=1;right=1;align=center;spacingLeft=5;fontStyle=0;overflow=hidden;html=1;whiteSpace=wrap;spacingRight=5;fontSize=14;strokeColor=default;verticalAlign=middle;fontFamily=Helvetica;fontColor=default;" parent="1" vertex="1">
          <mxGeometry x="3920" y="80" width="40" height="40" as="geometry">
            <mxRectangle width="180" height="30" as="alternateBounds" />
          </mxGeometry>
        </mxCell>
        <mxCell id="uECFME4bFshtPmdQIp78-246" value="" style="shape=partialRectangle;connectable=0;fillColor=default;top=1;left=1;bottom=1;right=1;align=center;spacingLeft=5;fontStyle=0;overflow=hidden;html=1;whiteSpace=wrap;spacingRight=5;fontSize=14;strokeColor=default;verticalAlign=middle;fontFamily=Helvetica;fontColor=default;" parent="1" vertex="1">
          <mxGeometry x="3960" y="80" width="40" height="40" as="geometry">
            <mxRectangle width="180" height="30" as="alternateBounds" />
          </mxGeometry>
        </mxCell>
        <mxCell id="uECFME4bFshtPmdQIp78-247" value="" style="shape=partialRectangle;connectable=0;fillColor=default;top=1;left=1;bottom=1;right=1;align=center;spacingLeft=5;fontStyle=0;overflow=hidden;html=1;whiteSpace=wrap;spacingRight=5;fontSize=14;strokeColor=default;verticalAlign=middle;fontFamily=Helvetica;fontColor=default;" parent="1" vertex="1">
          <mxGeometry x="4000" y="80" width="40" height="40" as="geometry">
            <mxRectangle width="180" height="30" as="alternateBounds" />
          </mxGeometry>
        </mxCell>
        <mxCell id="uECFME4bFshtPmdQIp78-248" value="" style="shape=partialRectangle;connectable=0;fillColor=default;top=1;left=1;bottom=1;right=1;align=center;spacingLeft=5;fontStyle=0;overflow=hidden;html=1;whiteSpace=wrap;spacingRight=5;fontSize=14;strokeColor=default;verticalAlign=middle;fontFamily=Helvetica;fontColor=default;" parent="1" vertex="1">
          <mxGeometry x="4040" y="80" width="40" height="40" as="geometry">
            <mxRectangle width="180" height="30" as="alternateBounds" />
          </mxGeometry>
        </mxCell>
        <mxCell id="uECFME4bFshtPmdQIp78-249" value="93" style="shape=partialRectangle;connectable=0;fillColor=default;top=1;left=1;bottom=1;right=1;align=center;spacingLeft=5;fontStyle=0;overflow=hidden;html=1;whiteSpace=wrap;spacingRight=5;fontSize=14;strokeColor=default;verticalAlign=middle;fontFamily=Helvetica;fontColor=default;" parent="1" vertex="1">
          <mxGeometry x="4600" y="80" width="40" height="40" as="geometry">
            <mxRectangle width="180" height="30" as="alternateBounds" />
          </mxGeometry>
        </mxCell>
        <mxCell id="uECFME4bFshtPmdQIp78-250" value="100" style="shape=partialRectangle;connectable=0;fillColor=default;top=1;left=1;bottom=1;right=1;align=center;spacingLeft=5;fontStyle=0;overflow=hidden;html=1;whiteSpace=wrap;spacingRight=5;fontSize=14;strokeColor=default;verticalAlign=middle;fontFamily=Helvetica;fontColor=default;" parent="1" vertex="1">
          <mxGeometry x="4640" y="80" width="40" height="40" as="geometry">
            <mxRectangle width="180" height="30" as="alternateBounds" />
          </mxGeometry>
        </mxCell>
        <mxCell id="uECFME4bFshtPmdQIp78-251" value="110" style="shape=partialRectangle;connectable=0;fillColor=default;top=1;left=1;bottom=1;right=1;align=center;spacingLeft=5;fontStyle=0;overflow=hidden;html=1;whiteSpace=wrap;spacingRight=5;fontSize=14;strokeColor=default;verticalAlign=middle;fontFamily=Helvetica;fontColor=default;" parent="1" vertex="1">
          <mxGeometry x="4680" y="80" width="40" height="40" as="geometry">
            <mxRectangle width="180" height="30" as="alternateBounds" />
          </mxGeometry>
        </mxCell>
        <mxCell id="uECFME4bFshtPmdQIp78-252" value="" style="shape=partialRectangle;connectable=0;fillColor=default;top=1;left=1;bottom=1;right=1;align=center;spacingLeft=5;fontStyle=0;overflow=hidden;html=1;whiteSpace=wrap;spacingRight=5;fontSize=14;strokeColor=default;verticalAlign=middle;fontFamily=Helvetica;fontColor=default;" parent="1" vertex="1">
          <mxGeometry x="4720" y="80" width="40" height="40" as="geometry">
            <mxRectangle width="180" height="30" as="alternateBounds" />
          </mxGeometry>
        </mxCell>
        <mxCell id="uECFME4bFshtPmdQIp78-253" value="" style="shape=partialRectangle;connectable=0;fillColor=default;top=1;left=1;bottom=1;right=1;align=center;spacingLeft=5;fontStyle=0;overflow=hidden;html=1;whiteSpace=wrap;spacingRight=5;fontSize=14;strokeColor=default;verticalAlign=middle;fontFamily=Helvetica;fontColor=default;" parent="1" vertex="1">
          <mxGeometry x="4760" y="80" width="40" height="40" as="geometry">
            <mxRectangle width="180" height="30" as="alternateBounds" />
          </mxGeometry>
        </mxCell>
        <mxCell id="uECFME4bFshtPmdQIp78-254" value="" style="endArrow=none;endFill=1;html=1;rounded=0;startFill=0;" parent="1" edge="1">
          <mxGeometry width="160" relative="1" as="geometry">
            <mxPoint x="3540" as="sourcePoint" />
            <mxPoint x="3180" y="80" as="targetPoint" />
          </mxGeometry>
        </mxCell>
        <mxCell id="uECFME4bFshtPmdQIp78-255" value="" style="endArrow=none;endFill=1;html=1;rounded=0;startFill=0;" parent="1" edge="1">
          <mxGeometry width="160" relative="1" as="geometry">
            <mxPoint x="3620" as="sourcePoint" />
            <mxPoint x="3420" y="80" as="targetPoint" />
          </mxGeometry>
        </mxCell>
        <mxCell id="uECFME4bFshtPmdQIp78-256" value="" style="endArrow=none;endFill=1;html=1;rounded=0;startFill=0;" parent="1" edge="1">
          <mxGeometry width="160" relative="1" as="geometry">
            <mxPoint x="3700" as="sourcePoint" />
            <mxPoint x="3660" y="80" as="targetPoint" />
          </mxGeometry>
        </mxCell>
        <mxCell id="uECFME4bFshtPmdQIp78-257" value="" style="endArrow=none;endFill=1;html=1;rounded=0;startFill=0;" parent="1" edge="1">
          <mxGeometry width="160" relative="1" as="geometry">
            <mxPoint x="4020" as="sourcePoint" />
            <mxPoint x="3900" y="80" as="targetPoint" />
          </mxGeometry>
        </mxCell>
        <mxCell id="uECFME4bFshtPmdQIp78-258" value="" style="endArrow=none;endFill=1;html=1;rounded=0;startFill=0;" parent="1" edge="1">
          <mxGeometry width="160" relative="1" as="geometry">
            <mxPoint x="4100" as="sourcePoint" />
            <mxPoint x="4140" y="80" as="targetPoint" />
          </mxGeometry>
        </mxCell>
        <mxCell id="uECFME4bFshtPmdQIp78-259" value="" style="endArrow=none;endFill=1;html=1;rounded=0;startFill=0;" parent="1" edge="1">
          <mxGeometry width="160" relative="1" as="geometry">
            <mxPoint x="4180" as="sourcePoint" />
            <mxPoint x="4380" y="80" as="targetPoint" />
          </mxGeometry>
        </mxCell>
        <mxCell id="uECFME4bFshtPmdQIp78-260" value="#" style="shape=partialRectangle;connectable=0;fillColor=#f5f5f5;top=1;left=1;bottom=1;right=1;align=center;spacingLeft=5;fontStyle=0;overflow=hidden;html=1;whiteSpace=wrap;spacingRight=5;fontSize=14;verticalAlign=middle;fontFamily=Helvetica;strokeColor=#666666;gradientColor=#b3b3b3;" parent="1" vertex="1">
          <mxGeometry x="3760" y="-160" width="40" height="40" as="geometry">
            <mxRectangle width="180" height="30" as="alternateBounds" />
          </mxGeometry>
        </mxCell>
        <mxCell id="uECFME4bFshtPmdQIp78-261" value="42" style="shape=partialRectangle;connectable=0;fillColor=default;top=1;left=1;bottom=1;right=1;align=center;spacingLeft=5;fontStyle=0;overflow=hidden;html=1;whiteSpace=wrap;spacingRight=5;fontSize=14;strokeColor=default;verticalAlign=middle;fontFamily=Helvetica;fontColor=default;" parent="1" vertex="1">
          <mxGeometry x="3800" y="-160" width="40" height="40" as="geometry">
            <mxRectangle width="180" height="30" as="alternateBounds" />
          </mxGeometry>
        </mxCell>
        <mxCell id="uECFME4bFshtPmdQIp78-262" value="#" style="shape=partialRectangle;connectable=0;fillColor=#f5f5f5;top=1;left=1;bottom=1;right=1;align=center;spacingLeft=5;fontStyle=0;overflow=hidden;html=1;whiteSpace=wrap;spacingRight=5;fontSize=14;strokeColor=#666666;verticalAlign=middle;fontFamily=Helvetica;fontColor=default;gradientColor=#b3b3b3;" parent="1" vertex="1">
          <mxGeometry x="3840" y="-160" width="40" height="40" as="geometry">
            <mxRectangle width="180" height="30" as="alternateBounds" />
          </mxGeometry>
        </mxCell>
        <mxCell id="uECFME4bFshtPmdQIp78-263" value="" style="shape=partialRectangle;connectable=0;fillColor=default;top=1;left=1;bottom=1;right=1;align=center;spacingLeft=5;fontStyle=0;overflow=hidden;html=1;whiteSpace=wrap;spacingRight=5;fontSize=14;strokeColor=default;verticalAlign=middle;fontFamily=Helvetica;fontColor=default;" parent="1" vertex="1">
          <mxGeometry x="3880" y="-160" width="40" height="40" as="geometry">
            <mxRectangle width="180" height="30" as="alternateBounds" />
          </mxGeometry>
        </mxCell>
        <mxCell id="uECFME4bFshtPmdQIp78-264" value="" style="shape=partialRectangle;connectable=0;fillColor=default;top=1;left=1;bottom=1;right=1;align=center;spacingLeft=5;fontStyle=0;overflow=hidden;html=1;whiteSpace=wrap;spacingRight=5;fontSize=14;strokeColor=default;verticalAlign=middle;fontFamily=Helvetica;fontColor=default;" parent="1" vertex="1">
          <mxGeometry x="3920" y="-160" width="40" height="40" as="geometry">
            <mxRectangle width="180" height="30" as="alternateBounds" />
          </mxGeometry>
        </mxCell>
        <mxCell id="uECFME4bFshtPmdQIp78-265" value="" style="shape=partialRectangle;connectable=0;fillColor=default;top=1;left=1;bottom=1;right=1;align=center;spacingLeft=5;fontStyle=0;overflow=hidden;html=1;whiteSpace=wrap;spacingRight=5;fontSize=14;strokeColor=default;verticalAlign=middle;fontFamily=Helvetica;fontColor=default;" parent="1" vertex="1">
          <mxGeometry x="3960" y="-160" width="40" height="40" as="geometry">
            <mxRectangle width="180" height="30" as="alternateBounds" />
          </mxGeometry>
        </mxCell>
        <mxCell id="uECFME4bFshtPmdQIp78-266" value="" style="shape=partialRectangle;connectable=0;fillColor=default;top=1;left=1;bottom=1;right=1;align=center;spacingLeft=5;fontStyle=0;overflow=hidden;html=1;whiteSpace=wrap;spacingRight=5;fontSize=14;strokeColor=default;verticalAlign=middle;fontFamily=Helvetica;fontColor=default;" parent="1" vertex="1">
          <mxGeometry x="4000" y="-160" width="40" height="40" as="geometry">
            <mxRectangle width="180" height="30" as="alternateBounds" />
          </mxGeometry>
        </mxCell>
        <mxCell id="uECFME4bFshtPmdQIp78-267" value="" style="shape=partialRectangle;connectable=0;fillColor=default;top=1;left=1;bottom=1;right=1;align=center;spacingLeft=5;fontStyle=0;overflow=hidden;html=1;whiteSpace=wrap;spacingRight=5;fontSize=14;strokeColor=default;verticalAlign=middle;fontFamily=Helvetica;fontColor=default;" parent="1" vertex="1">
          <mxGeometry x="4040" y="-160" width="40" height="40" as="geometry">
            <mxRectangle width="180" height="30" as="alternateBounds" />
          </mxGeometry>
        </mxCell>
        <mxCell id="uECFME4bFshtPmdQIp78-268" value="" style="shape=partialRectangle;connectable=0;fillColor=default;top=1;left=1;bottom=1;right=1;align=center;spacingLeft=5;fontStyle=0;overflow=hidden;html=1;whiteSpace=wrap;spacingRight=5;fontSize=14;strokeColor=default;verticalAlign=middle;fontFamily=Helvetica;fontColor=default;" parent="1" vertex="1">
          <mxGeometry x="4080" y="-160" width="40" height="40" as="geometry">
            <mxRectangle width="180" height="30" as="alternateBounds" />
          </mxGeometry>
        </mxCell>
        <mxCell id="uECFME4bFshtPmdQIp78-269" value="" style="shape=partialRectangle;connectable=0;fillColor=default;top=1;left=1;bottom=1;right=1;align=center;spacingLeft=5;fontStyle=0;overflow=hidden;html=1;whiteSpace=wrap;spacingRight=5;fontSize=14;strokeColor=default;verticalAlign=middle;fontFamily=Helvetica;fontColor=default;" parent="1" vertex="1">
          <mxGeometry x="4120" y="-160" width="40" height="40" as="geometry">
            <mxRectangle width="180" height="30" as="alternateBounds" />
          </mxGeometry>
        </mxCell>
        <mxCell id="uECFME4bFshtPmdQIp78-270" value="" style="shape=partialRectangle;connectable=0;fillColor=default;top=1;left=1;bottom=1;right=1;align=center;spacingLeft=5;fontStyle=0;overflow=hidden;html=1;whiteSpace=wrap;spacingRight=5;fontSize=14;strokeColor=default;verticalAlign=middle;fontFamily=Helvetica;fontColor=default;" parent="1" vertex="1">
          <mxGeometry x="4160" y="-160" width="40" height="40" as="geometry">
            <mxRectangle width="180" height="30" as="alternateBounds" />
          </mxGeometry>
        </mxCell>
        <mxCell id="uECFME4bFshtPmdQIp78-271" value="#" style="shape=partialRectangle;connectable=0;fillColor=#f5f5f5;top=1;left=1;bottom=1;right=1;align=center;spacingLeft=5;fontStyle=0;overflow=hidden;html=1;whiteSpace=wrap;spacingRight=5;fontSize=14;verticalAlign=middle;fontFamily=Helvetica;strokeColor=#666666;gradientColor=#b3b3b3;" parent="1" vertex="1">
          <mxGeometry x="3520" y="-40" width="40" height="40" as="geometry">
            <mxRectangle width="180" height="30" as="alternateBounds" />
          </mxGeometry>
        </mxCell>
        <mxCell id="uECFME4bFshtPmdQIp78-272" value="21" style="shape=partialRectangle;connectable=0;fillColor=default;top=1;left=1;bottom=1;right=1;align=center;spacingLeft=5;fontStyle=0;overflow=hidden;html=1;whiteSpace=wrap;spacingRight=5;fontSize=14;strokeColor=default;verticalAlign=middle;fontFamily=Helvetica;fontColor=default;" parent="1" vertex="1">
          <mxGeometry x="3560" y="-40" width="40" height="40" as="geometry">
            <mxRectangle width="180" height="30" as="alternateBounds" />
          </mxGeometry>
        </mxCell>
        <mxCell id="uECFME4bFshtPmdQIp78-273" value="#" style="shape=partialRectangle;connectable=0;fillColor=#f5f5f5;top=1;left=1;bottom=1;right=1;align=center;spacingLeft=5;fontStyle=0;overflow=hidden;html=1;whiteSpace=wrap;spacingRight=5;fontSize=14;strokeColor=#666666;verticalAlign=middle;fontFamily=Helvetica;fontColor=default;gradientColor=#b3b3b3;" parent="1" vertex="1">
          <mxGeometry x="3600" y="-40" width="40" height="40" as="geometry">
            <mxRectangle width="180" height="30" as="alternateBounds" />
          </mxGeometry>
        </mxCell>
        <mxCell id="uECFME4bFshtPmdQIp78-274" value="30" style="shape=partialRectangle;connectable=0;fillColor=default;top=1;left=1;bottom=1;right=1;align=center;spacingLeft=5;fontStyle=0;overflow=hidden;html=1;whiteSpace=wrap;spacingRight=5;fontSize=14;strokeColor=default;verticalAlign=middle;fontFamily=Helvetica;fontColor=default;" parent="1" vertex="1">
          <mxGeometry x="3640" y="-40" width="40" height="40" as="geometry">
            <mxRectangle width="180" height="30" as="alternateBounds" />
          </mxGeometry>
        </mxCell>
        <mxCell id="uECFME4bFshtPmdQIp78-275" value="#" style="shape=partialRectangle;connectable=0;fillColor=#f5f5f5;top=1;left=1;bottom=1;right=1;align=center;spacingLeft=5;fontStyle=0;overflow=hidden;html=1;whiteSpace=wrap;spacingRight=5;fontSize=14;strokeColor=#666666;verticalAlign=middle;fontFamily=Helvetica;fontColor=default;gradientColor=#b3b3b3;" parent="1" vertex="1">
          <mxGeometry x="3680" y="-40" width="40" height="40" as="geometry">
            <mxRectangle width="180" height="30" as="alternateBounds" />
          </mxGeometry>
        </mxCell>
        <mxCell id="uECFME4bFshtPmdQIp78-276" value="" style="shape=partialRectangle;connectable=0;fillColor=default;top=1;left=1;bottom=1;right=1;align=center;spacingLeft=5;fontStyle=0;overflow=hidden;html=1;whiteSpace=wrap;spacingRight=5;fontSize=14;strokeColor=default;verticalAlign=middle;fontFamily=Helvetica;fontColor=default;" parent="1" vertex="1">
          <mxGeometry x="3720" y="-40" width="40" height="40" as="geometry">
            <mxRectangle width="180" height="30" as="alternateBounds" />
          </mxGeometry>
        </mxCell>
        <mxCell id="uECFME4bFshtPmdQIp78-277" value="" style="shape=partialRectangle;connectable=0;fillColor=default;top=1;left=1;bottom=1;right=1;align=center;spacingLeft=5;fontStyle=0;overflow=hidden;html=1;whiteSpace=wrap;spacingRight=5;fontSize=14;strokeColor=default;verticalAlign=middle;fontFamily=Helvetica;fontColor=default;" parent="1" vertex="1">
          <mxGeometry x="3760" y="-40" width="40" height="40" as="geometry">
            <mxRectangle width="180" height="30" as="alternateBounds" />
          </mxGeometry>
        </mxCell>
        <mxCell id="uECFME4bFshtPmdQIp78-278" value="" style="shape=partialRectangle;connectable=0;fillColor=default;top=1;left=1;bottom=1;right=1;align=center;spacingLeft=5;fontStyle=0;overflow=hidden;html=1;whiteSpace=wrap;spacingRight=5;fontSize=14;strokeColor=default;verticalAlign=middle;fontFamily=Helvetica;fontColor=default;" parent="1" vertex="1">
          <mxGeometry x="3800" y="-40" width="40" height="40" as="geometry">
            <mxRectangle width="180" height="30" as="alternateBounds" />
          </mxGeometry>
        </mxCell>
        <mxCell id="uECFME4bFshtPmdQIp78-279" value="" style="shape=partialRectangle;connectable=0;fillColor=default;top=1;left=1;bottom=1;right=1;align=center;spacingLeft=5;fontStyle=0;overflow=hidden;html=1;whiteSpace=wrap;spacingRight=5;fontSize=14;strokeColor=default;verticalAlign=middle;fontFamily=Helvetica;fontColor=default;" parent="1" vertex="1">
          <mxGeometry x="3840" y="-40" width="40" height="40" as="geometry">
            <mxRectangle width="180" height="30" as="alternateBounds" />
          </mxGeometry>
        </mxCell>
        <mxCell id="uECFME4bFshtPmdQIp78-280" value="" style="shape=partialRectangle;connectable=0;fillColor=default;top=1;left=1;bottom=1;right=1;align=center;spacingLeft=5;fontStyle=0;overflow=hidden;html=1;whiteSpace=wrap;spacingRight=5;fontSize=14;strokeColor=default;verticalAlign=middle;fontFamily=Helvetica;fontColor=default;" parent="1" vertex="1">
          <mxGeometry x="3880" y="-40" width="40" height="40" as="geometry">
            <mxRectangle width="180" height="30" as="alternateBounds" />
          </mxGeometry>
        </mxCell>
        <mxCell id="uECFME4bFshtPmdQIp78-281" value="" style="shape=partialRectangle;connectable=0;fillColor=default;top=1;left=1;bottom=1;right=1;align=center;spacingLeft=5;fontStyle=0;overflow=hidden;html=1;whiteSpace=wrap;spacingRight=5;fontSize=14;strokeColor=default;verticalAlign=middle;fontFamily=Helvetica;fontColor=default;" parent="1" vertex="1">
          <mxGeometry x="3920" y="-40" width="40" height="40" as="geometry">
            <mxRectangle width="180" height="30" as="alternateBounds" />
          </mxGeometry>
        </mxCell>
        <mxCell id="uECFME4bFshtPmdQIp78-282" value="" style="shape=partialRectangle;connectable=0;fillColor=default;top=1;left=1;bottom=1;right=1;align=center;spacingLeft=5;fontStyle=0;overflow=hidden;html=1;whiteSpace=wrap;spacingRight=5;fontSize=14;strokeColor=default;verticalAlign=middle;fontFamily=Helvetica;fontColor=default;" parent="1" vertex="1">
          <mxGeometry x="4280" y="-40" width="40" height="40" as="geometry">
            <mxRectangle width="180" height="30" as="alternateBounds" />
          </mxGeometry>
        </mxCell>
        <mxCell id="uECFME4bFshtPmdQIp78-283" value="" style="shape=partialRectangle;connectable=0;fillColor=default;top=1;left=1;bottom=1;right=1;align=center;spacingLeft=5;fontStyle=0;overflow=hidden;html=1;whiteSpace=wrap;spacingRight=5;fontSize=14;strokeColor=default;verticalAlign=middle;fontFamily=Helvetica;fontColor=default;" parent="1" vertex="1">
          <mxGeometry x="4320" y="-40" width="40" height="40" as="geometry">
            <mxRectangle width="180" height="30" as="alternateBounds" />
          </mxGeometry>
        </mxCell>
        <mxCell id="uECFME4bFshtPmdQIp78-284" value="" style="shape=partialRectangle;connectable=0;fillColor=default;top=1;left=1;bottom=1;right=1;align=center;spacingLeft=5;fontStyle=0;overflow=hidden;html=1;whiteSpace=wrap;spacingRight=5;fontSize=14;strokeColor=default;verticalAlign=middle;fontFamily=Helvetica;fontColor=default;" parent="1" vertex="1">
          <mxGeometry x="4360" y="-40" width="40" height="40" as="geometry">
            <mxRectangle width="180" height="30" as="alternateBounds" />
          </mxGeometry>
        </mxCell>
        <mxCell id="uECFME4bFshtPmdQIp78-285" value="" style="shape=partialRectangle;connectable=0;fillColor=default;top=1;left=1;bottom=1;right=1;align=center;spacingLeft=5;fontStyle=0;overflow=hidden;html=1;whiteSpace=wrap;spacingRight=5;fontSize=14;strokeColor=default;verticalAlign=middle;fontFamily=Helvetica;fontColor=default;" parent="1" vertex="1">
          <mxGeometry x="4400" y="-40" width="40" height="40" as="geometry">
            <mxRectangle width="180" height="30" as="alternateBounds" />
          </mxGeometry>
        </mxCell>
        <mxCell id="uECFME4bFshtPmdQIp78-288" value="#" style="shape=partialRectangle;connectable=0;fillColor=#f5f5f5;top=1;left=1;bottom=1;right=1;align=center;spacingLeft=5;fontStyle=0;overflow=hidden;html=1;whiteSpace=wrap;spacingRight=5;fontSize=14;strokeColor=#666666;verticalAlign=middle;fontFamily=Helvetica;fontColor=default;gradientColor=#b3b3b3;" parent="1" vertex="1">
          <mxGeometry x="4000" y="-40" width="40" height="40" as="geometry">
            <mxRectangle width="180" height="30" as="alternateBounds" />
          </mxGeometry>
        </mxCell>
        <mxCell id="uECFME4bFshtPmdQIp78-290" value="" style="endArrow=none;endFill=1;html=1;rounded=0;startFill=0;" parent="1" edge="1">
          <mxGeometry width="160" relative="1" as="geometry">
            <mxPoint x="3780" y="-120" as="sourcePoint" />
            <mxPoint x="3580" y="-40" as="targetPoint" />
          </mxGeometry>
        </mxCell>
        <mxCell id="uECFME4bFshtPmdQIp78-291" value="" style="endArrow=none;endFill=1;html=1;rounded=0;startFill=0;" parent="1" edge="1">
          <mxGeometry width="160" relative="1" as="geometry">
            <mxPoint x="3860" y="-120" as="sourcePoint" />
            <mxPoint x="4060" y="-40" as="targetPoint" />
          </mxGeometry>
        </mxCell>
        <mxCell id="uECFME4bFshtPmdQIp78-292" value="51" style="shape=partialRectangle;connectable=0;fillColor=default;top=1;left=1;bottom=1;right=1;align=center;spacingLeft=5;fontStyle=0;overflow=hidden;html=1;whiteSpace=wrap;spacingRight=5;fontSize=14;strokeColor=default;verticalAlign=middle;fontFamily=Helvetica;fontColor=default;" parent="1" vertex="1">
          <mxGeometry x="4120" y="80" width="40" height="40" as="geometry">
            <mxRectangle width="180" height="30" as="alternateBounds" />
          </mxGeometry>
        </mxCell>
        <mxCell id="uECFME4bFshtPmdQIp78-293" value="52" style="shape=partialRectangle;connectable=0;fillColor=default;top=1;left=1;bottom=1;right=1;align=center;spacingLeft=5;fontStyle=0;overflow=hidden;html=1;whiteSpace=wrap;spacingRight=5;fontSize=14;strokeColor=default;verticalAlign=middle;fontFamily=Helvetica;fontColor=default;" parent="1" vertex="1">
          <mxGeometry x="4160" y="80" width="40" height="40" as="geometry">
            <mxRectangle width="180" height="30" as="alternateBounds" />
          </mxGeometry>
        </mxCell>
        <mxCell id="uECFME4bFshtPmdQIp78-294" value="53" style="shape=partialRectangle;connectable=0;fillColor=default;top=1;left=1;bottom=1;right=1;align=center;spacingLeft=5;fontStyle=0;overflow=hidden;html=1;whiteSpace=wrap;spacingRight=5;fontSize=14;strokeColor=default;verticalAlign=middle;fontFamily=Helvetica;fontColor=default;" parent="1" vertex="1">
          <mxGeometry x="4200" y="80" width="40" height="40" as="geometry">
            <mxRectangle width="180" height="30" as="alternateBounds" />
          </mxGeometry>
        </mxCell>
        <mxCell id="uECFME4bFshtPmdQIp78-295" value="" style="shape=partialRectangle;connectable=0;fillColor=default;top=1;left=1;bottom=1;right=1;align=center;spacingLeft=5;fontStyle=0;overflow=hidden;html=1;whiteSpace=wrap;spacingRight=5;fontSize=14;strokeColor=default;verticalAlign=middle;fontFamily=Helvetica;fontColor=default;" parent="1" vertex="1">
          <mxGeometry x="4240" y="80" width="40" height="40" as="geometry">
            <mxRectangle width="180" height="30" as="alternateBounds" />
          </mxGeometry>
        </mxCell>
        <mxCell id="uECFME4bFshtPmdQIp78-296" value="" style="shape=partialRectangle;connectable=0;fillColor=default;top=1;left=1;bottom=1;right=1;align=center;spacingLeft=5;fontStyle=0;overflow=hidden;html=1;whiteSpace=wrap;spacingRight=5;fontSize=14;strokeColor=default;verticalAlign=middle;fontFamily=Helvetica;fontColor=default;" parent="1" vertex="1">
          <mxGeometry x="4280" y="80" width="40" height="40" as="geometry">
            <mxRectangle width="180" height="30" as="alternateBounds" />
          </mxGeometry>
        </mxCell>
        <mxCell id="uECFME4bFshtPmdQIp78-297" value="" style="endArrow=none;endFill=1;html=1;rounded=0;startFill=0;" parent="1" edge="1">
          <mxGeometry width="160" relative="1" as="geometry">
            <mxPoint x="4260" as="sourcePoint" />
            <mxPoint x="4620" y="80" as="targetPoint" />
          </mxGeometry>
        </mxCell>
      </root>
    </mxGraphModel>
  </diagram>
</mxfile>
